<?xml version="1.0" encoding="UTF-8" standalone="no"?>
<!-- Created with Inkscape (http://www.inkscape.org/) -->

<svg
   width="210mm"
   height="297mm"
   viewBox="0 0 210 297"
   version="1.1"
   id="svg5"
   sodipodi:docname="Þórhallur - simonsaysbox 3.svg"
   inkscape:version="1.1 (ce6663b3b7, 2021-05-25)"
   xmlns:inkscape="http://www.inkscape.org/namespaces/inkscape"
   xmlns:sodipodi="http://sodipodi.sourceforge.net/DTD/sodipodi-0.dtd"
   xmlns="http://www.w3.org/2000/svg"
   xmlns:svg="http://www.w3.org/2000/svg">
  <sodipodi:namedview
     id="namedview7"
     pagecolor="#ffffff"
     bordercolor="#666666"
     borderopacity="1.0"
     inkscape:pageshadow="2"
     inkscape:pageopacity="0.0"
     inkscape:pagecheckerboard="0"
     inkscape:document-units="mm"
     showgrid="false"
     inkscape:zoom="2.0993933"
     inkscape:cx="-1267.2709"
     inkscape:cy="231.73362"
     inkscape:window-width="1848"
     inkscape:window-height="1016"
     inkscape:window-x="0"
     inkscape:window-y="0"
     inkscape:window-maximized="1"
     inkscape:current-layer="layer1"
     showguides="true"
     inkscape:guide-bbox="true">
    <sodipodi:guide
       position="-392.99121,254.94472"
       orientation="1,0"
       id="guide71" />
    <sodipodi:guide
       position="-405.82164,254.94472"
       orientation="1,0"
       id="guide73" />
    <sodipodi:guide
       position="-410.57365,258.03353"
       orientation="1,0"
       id="guide177" />
  </sodipodi:namedview>
  <defs
     id="defs2" />
  <g
     inkscape:label="Layer 1"
     inkscape:groupmode="layer"
     id="layer1">
    <g
       id="panel3652"
       transform="translate(-480.76125,-38.47237)">
      <path
         style="fill:none;stroke:#000000;stroke-width:1"
         d="m 58.4,128.9 h 7.24 v -3.1 h 7.2 v 3.1 h 7.14 v -3.1 h 7.2 v 3.1 h 7.14 v -3.1 h 7.2 v 3.1 h 7.14 v -3.1 h 7.2 v 3.1 H 123 v -3.1 h 7.2 v 3.1 h 7.14 v -3.1 h 7.2 v 3.1 h 7.14 v -3.1 h 7.2 v 3.1 h 7.14 v -3.1 h 7.2 v 3.1 h 7.14 v -3.1 h 7.2 v 3.1 h 7.24"
         id="path15" />
      <path
         style="fill:none;stroke:#000000;stroke-width:1"
         d="m 194.8,128.9 v 5.85 h -3.1 v 6.8 h 3.1 v 9.05 h -3.1 v 6.8 h 3.1 v 9.05 h -3.1 v 6.8 h 3.1 v 5.85"
         id="path17" />
      <path
         style="fill:none;stroke:#000000;stroke-width:1"
         d="M 194.8,179.1 H 58.4"
         id="path19"
         sodipodi:nodetypes="sc" />
      <path
         style="fill:none;stroke:#000000;stroke-width:1"
         d="m 58.4,179.1 v -5.85 h 3.1 v -6.8 h -3.1 v -9.05 h 3.1 v -6.8 h -3.1 v -9.05 h 3.1 v -6.8 h -3.1 v -5.85"
         id="path21" />
    </g>
    <g
       id="panel7315"
       transform="translate(-480.76125,-38.47237)">
      <path
         style="fill:none;stroke:#000000;stroke-width:1"
         d="m 4.1,61.5 h 5.65 v -3.1 h 7.2 v 3.1 h 8.65 v -3.1 h 7.2 v 3.1 h 8.65 v -3.1 h 7.2 v 3.1 h 5.65"
         id="path24" />
      <path
         style="fill:none;stroke:#000000;stroke-width:1"
         d="m 54.3,61.5 v 4.48 h 3.1 v 7.2 h -3.1 v 7.48 h 3.1 v 7.2 h -3.1 v 7.48 h 3.1 v 7.2 h -3.1 v 7.48 h 3.1 v 7.2 h -3.1 v 4.48"
         id="path26" />
      <path
         style="fill:none;stroke:#000000;stroke-width:1"
         d="m 54.3,121.7 h -5.65 v 3.1 h -7.2 v -3.1 H 32.8 v 3.1 h -7.2 v -3.1 h -8.65 v 3.1 h -7.2 v -3.1 H 4.1"
         id="path28" />
      <path
         style="fill:none;stroke:#000000;stroke-width:1"
         d="m 4.1,121.7 v -4.48 -7.2 -7.48 H 1 v -7.2 H 4.1 V 87.86 H 1 v -7.2 h 3.1 v -7.48 -7.2 -4.48"
         id="path30"
         sodipodi:nodetypes="cccccccccccccc" />
    </g>
    <g
       id="panel1584"
       transform="translate(-480.76125,-38.47237)">
      <path
         style="fill:none;stroke:#000000;stroke-width:1"
         d="m 58.4,58.4 h 7.44 v 3.1 h 6.8 v -3.1 h 7.54 v 3.1 h 6.8 v -3.1 h 7.54 v 3.1 h 6.8 v -3.1 h 7.54 v 3.1 h 6.8 v -3.1 h 7.54 v 3.1 h 6.8 v -3.1 h 7.54 v 3.1 h 6.8 v -3.1 h 7.54 v 3.1 h 6.8 v -3.1 h 7.54 v 3.1 h 6.8 v -3.1 h 7.54 v 3.1 h 6.8 v -3.1 h 7.44"
         id="path33" />
      <path
         style="fill:none;stroke:#000000;stroke-width:1"
         d="m 194.8,58.4 v 7.78 h -3.1 v 6.8 h 3.1 v 7.88 h -3.1 v 6.8 h 3.1 v 7.88 h -3.1 v 6.8 h 3.1 v 7.88 h -3.1 v 6.8 h 3.1 v 7.78"
         id="path35" />
      <path
         style="fill:none;stroke:#000000;stroke-width:1"
         d="m 194.8,124.8 h -7.44 v -3.1 h -6.8 v 3.1 h -7.54 v -3.1 h -6.8 v 3.1 h -7.54 v -3.1 h -6.8 v 3.1 h -7.54 v -3.1 h -6.8 v 3.1 H 130 v -3.1 h -6.8 v 3.1 h -7.54 v -3.1 h -6.8 v 3.1 h -7.54 v -3.1 h -6.8 v 3.1 h -7.54 v -3.1 h -6.8 v 3.1 h -7.54 v -3.1 h -6.8 v 3.1 H 58.4"
         id="path37" />
      <path
         style="fill:none;stroke:#000000;stroke-width:1"
         d="m 58.4,124.8 v -7.78 h 3.1 v -6.8 h -3.1 v -7.88 h 3.1 v -6.8 h -3.1 v -7.88 h 3.1 v -6.8 h -3.1 v -7.88 h 3.1 v -6.8 H 58.4 V 58.4"
         id="path39" />
    </g>
    <g
       id="panel7860"
       transform="translate(-480.76125,-38.47237)">
      <path
         style="fill:none;stroke:#000000;stroke-width:1"
         d="m 198.9,61.5 h 5.65 v -3.1 h 7.2 v 3.1 h 8.65 v -3.1 h 7.2 v 3.1 h 8.65 v -3.1 h 7.2 v 3.1 h 5.65"
         id="path42" />
      <path
         style="fill:none;stroke:#000000;stroke-width:1"
         d="m 249.1,61.5 v 4.48 h 3.1 v 7.2 h -3.1 v 7.48 h 3.1 v 7.2 h -3.1 v 7.48 h 3.1 v 7.2 h -3.1 v 7.48 h 3.1 v 7.2 h -3.1 v 4.48"
         id="path44" />
      <path
         style="fill:none;stroke:#000000;stroke-width:1"
         d="m 249.1,121.7 h -5.65 v 3.1 h -7.2 v -3.1 h -8.65 v 3.1 h -7.2 v -3.1 h -8.65 v 3.1 h -7.2 v -3.1 h -5.65"
         id="path46" />
      <path
         style="fill:none;stroke:#000000;stroke-width:1"
         d="m 198.9,121.7 v -4.48 h -3.1 v -7.2 h 3.1 v -7.48 h -3.1 v -7.2 h 3.1 v -7.48 h -3.1 v -7.2 h 3.1 v -7.48 h -3.1 v -7.2 h 3.1 V 61.5"
         id="path48" />
    </g>
    <g
       id="panel3634"
       transform="translate(-480.76125,-38.47237)">
      <path
         style="fill:none;stroke:#000000;stroke-width:1"
         d="M 253.2,58.4 H 389.6"
         id="path51"
         sodipodi:nodetypes="cc" />
      <path
         style="fill:none;stroke:#000000;stroke-width:1"
         d="m 389.6,58.4 v 7.78 6.8 7.88 h -3.1 v 6.8 h 3.1 v 7.88 h -3.1 v 6.8 h 3.1 v 7.88 6.8 7.78"
         id="path53"
         sodipodi:nodetypes="cccccccccccccc" />
      <path
         style="fill:none;stroke:#000000;stroke-width:1"
         d="M 389.6,124.8 H 253.2"
         id="path55"
         sodipodi:nodetypes="cc" />
      <path
         style="fill:none;stroke:#000000;stroke-width:1"
         d="m 253.2,124.8 v -7.78 h 3.1 v -6.8 h -3.1 v -7.88 h 3.1 v -6.8 h -3.1 v -7.88 h 3.1 v -6.8 h -3.1 v -7.88 h 3.1 v -6.8 h -3.1 V 58.4"
         id="path57" />
    </g>
    <g
       id="panel379"
       transform="translate(-480.76125,-38.47237)">
      <path
         style="fill:none;stroke:#000000;stroke-width:1"
         d="M 58.4,4.1 H 194.8"
         id="path60"
         sodipodi:nodetypes="cc" />
      <path
         style="fill:none;stroke:#000000;stroke-width:1"
         d="m 194.8,4.1 v 5.85 h -3.1 v 6.8 h 3.1 v 9.05 h -3.1 v 6.8 h 3.1 v 9.05 h -3.1 v 6.8 h 3.1 v 5.85"
         id="path62" />
      <path
         style="fill:none;stroke:#000000;stroke-width:1"
         d="m 194.8,54.3 h -7.24 v 3.1 h -7.2 v -3.1 h -7.14 v 3.1 h -7.2 v -3.1 h -7.14 v 3.1 h -7.2 v -3.1 h -7.14 v 3.1 h -7.2 v -3.1 h -7.14 v 3.1 H 123 v -3.1 h -7.14 v 3.1 h -7.2 v -3.1 h -7.14 v 3.1 h -7.2 v -3.1 h -7.14 v 3.1 h -7.2 v -3.1 h -7.14 v 3.1 h -7.2 V 54.3 H 58.4"
         id="path64" />
      <path
         style="fill:none;stroke:#000000;stroke-width:1"
         d="m 58.4,54.3 v -5.85 h 3.1 v -6.8 H 58.4 V 32.6 h 3.1 v -6.8 h -3.1 v -9.05 h 3.1 V 9.95 H 58.4 V 4.1"
         id="path66" />
    </g>
    <ellipse
       style="fill:none;stroke:#000000;stroke-width:0.131459"
       id="path1722"
       cx="-402.45001"
       cy="39.549999"
       rx="2.4842703"
       ry="2.4842706" />
    <ellipse
       style="fill:none;stroke:#000000;stroke-width:0.131459"
       id="path1722-5"
       cx="-377.45001"
       cy="39.549999"
       rx="2.4842703"
       ry="2.4842706" />
    <circle
       style="fill:none;stroke:#000000;stroke-width:0.131459"
       id="path1722-3"
       cx="-327.45001"
       cy="39.549999"
       rx="2.4842703"
       ry="2.4842706" />
    <ellipse
       style="fill:none;stroke:#000000;stroke-width:0.131459"
       id="path1722-56"
       cx="-352.45001"
       cy="39.549999"
       rx="2.4842703"
       ry="2.4842706" />
    <ellipse
       style="fill:none;stroke:#000000;stroke-width:0.131459"
       id="path1722-56-3"
       cx="-327.45001"
       cy="39.549999"
       rx="2.4842703"
       ry="2.4842706" />
    <ellipse
       style="fill:none;stroke:#000000;stroke-width:0.121332"
       id="path1768"
       cx="-401.5"
       cy="61.5"
       rx="3.4393339"
       ry="3.4393342" />
    <ellipse
       style="fill:none;stroke:#000000;stroke-width:0.121332"
       id="path1768-3"
       cx="-351.5"
       cy="61.5"
       rx="3.4393339"
       ry="3.4393342" />
    <ellipse
       style="fill:none;stroke:#000000;stroke-width:0.121332"
       id="path1768-6"
       cx="-326.5"
       cy="61.5"
       rx="3.4393342"
       ry="3.4393339" />
    <ellipse
       style="fill:none;stroke:#000000;stroke-width:0.121332"
       id="path1768-7"
       cx="-376.5"
       cy="61.5"
       rx="3.4393339"
       ry="3.4393342" />
    <g
       aria-label="Simon Says"
       transform="rotate(90,-301.23017,37.178033)"
       id="text2702"
       style="font-size:10.5833px;line-height:1.25;white-space:pre;inline-size:61.5149;fill:#ff0000;stroke-width:0.264583">
      <path
         d="m -305.94254,36.235384 -0.46566,1.100663 c 0.37041,0.497415 0.85724,0.730248 1.55574,0.730248 1.61925,0 3.20674,-1.31233 3.20674,-2.666992 0,-0.433915 -0.15875,-0.656164 -0.9525,-1.269996 -0.77258,-0.603248 -0.89958,-0.783164 -0.89958,-1.238246 0,-0.698498 0.51859,-1.280579 1.143,-1.280579 0.4445,0 0.60325,0.190499 0.71967,0.86783 l 0.69849,-0.497415 c -0.0635,-0.571498 -0.381,-0.86783 -0.94191,-0.86783 -1.09008,0 -2.32833,1.195913 -2.32833,2.254243 0,0.486831 0.21167,0.814914 0.83608,1.301745 0.71967,0.571499 0.91017,0.857248 0.91017,1.34408 0,0.83608 -0.79375,1.555745 -1.7145,1.555745 -0.45508,0 -0.92074,-0.201083 -1.20649,-0.518582 -0.22225,-0.243416 -0.30692,-0.465665 -0.39159,-0.93133 z"
         style="font-style:italic;font-weight:500;font-family:Z003;-inkscape-font-specification:'Z003, Medium Italic'"
         id="path19726" />
      <path
         d="m -298.86233,30.795568 c -0.29633,0.232832 -0.53974,0.423332 -0.73024,0.550331 0.0741,0.22225 0.16933,0.402166 0.40216,0.740831 0.29633,-0.264582 0.32808,-0.296332 0.68792,-0.571498 -0.0317,-0.0635 -0.0529,-0.105833 -0.13759,-0.243416 -0.0635,-0.126999 -0.0741,-0.126999 -0.15875,-0.338665 z m 0.40217,5.29165 -0.17992,0.09525 c -0.73024,0.402166 -0.85724,0.455082 -0.98424,0.455082 -0.11642,0 -0.1905,-0.116416 -0.1905,-0.296332 0,-0.179916 0,-0.179916 0.34925,-1.576912 0.39158,-1.608661 0.39158,-1.608661 0.39158,-1.693328 0,-0.0635 -0.0529,-0.105833 -0.127,-0.105833 -0.17992,0 -0.80433,0.349249 -1.67216,0.931331 l -0.0212,0.296332 c 0.64558,-0.349249 0.67733,-0.359832 0.77258,-0.359832 0.0847,0 0.127,0.0635 0.127,0.179916 0,0.148166 -0.0318,0.296332 -0.1905,0.89958 -0.49741,1.841494 -0.49741,1.841494 -0.49741,2.11666 0,0.253999 0.0953,0.423332 0.254,0.423332 0.17991,0 0.46566,-0.137583 1.02658,-0.497415 0.20108,-0.126999 0.40216,-0.253999 0.60324,-0.391582 0.0953,-0.05292 0.16934,-0.105833 0.29634,-0.179916 z"
         style="font-style:italic;font-weight:500;font-family:Z003;-inkscape-font-specification:'Z003, Medium Italic'"
         id="path19728" />
      <path
         d="m -298.23791,37.420713 0.75141,-0.285749 0.67733,-2.571742 c 0.68792,-0.476248 1.143,-0.730247 1.28058,-0.730247 0.0847,0 0.13758,0.08467 0.13758,0.232832 0,0.317499 -0.40216,1.915578 -0.84666,3.354906 l 0.80433,-0.285749 0.65617,-2.645825 c 0.60324,-0.391582 1.17474,-0.709081 1.30174,-0.709081 0.0953,0 0.13758,0.07408 0.13758,0.201083 0,0.232833 -0.0952,0.709081 -0.38099,1.799161 -0.15875,0.656165 -0.21167,0.920747 -0.21167,1.164163 0,0.222249 0.0529,0.338665 0.254,0.476248 0.61383,-0.306915 1.2065,-0.687914 1.78858,-1.153579 l 0.0106,-0.243416 c -0.89958,0.550331 -0.89958,0.550331 -1.04775,0.550331 -0.11641,0 -0.1905,-0.105833 -0.1905,-0.275165 0,-0.243416 0.127,-0.804331 0.34925,-1.587495 0.33867,-1.174747 0.40217,-1.418162 0.40217,-1.587495 0,-0.105833 -0.0529,-0.15875 -0.16933,-0.15875 -0.1905,0 -0.84667,0.338666 -2.13783,1.100663 0.0423,-0.190499 0.0423,-0.190499 0.13758,-0.603248 0.0423,-0.158749 0.0741,-0.338665 0.0741,-0.380998 0,-0.07408 -0.0529,-0.116417 -0.13759,-0.116417 -0.17991,0 -0.58208,0.22225 -2.10607,1.18533 0.16933,-0.719665 0.22224,-0.96308 0.22224,-1.037164 0,-0.09525 -0.0635,-0.148166 -0.15874,-0.148166 -0.10584,0 -0.22225,0.0635 -0.75142,0.359832 -0.6985,0.402166 -0.6985,0.402166 -0.889,0.529165 l -0.0741,0.296333 c 0.56092,-0.285749 0.65617,-0.317499 0.78316,-0.317499 0.0847,0 0.14817,0.08467 0.14817,0.201082 0,0.15875 -0.0317,0.296333 -0.45508,1.979078 -0.0952,0.338665 -0.17992,0.687914 -0.26458,1.037163 z"
         style="font-style:italic;font-weight:500;font-family:Z003;-inkscape-font-specification:'Z003, Medium Italic'"
         id="path19730" />
      <path
         d="m -288.85054,32.965144 c -0.42333,0 -1.10066,0.306916 -1.72508,0.772581 -0.67733,0.507998 -1.15358,1.608662 -1.15358,2.666992 0,0.634998 0.35984,1.047746 0.92075,1.047746 0.29633,0 0.60325,-0.105833 1.0795,-0.359832 0.52916,-0.296332 0.87841,-0.560915 1.06891,-0.804331 0.42333,-0.582081 0.762,-1.619245 0.762,-2.349492 0,-0.571498 -0.39158,-0.973664 -0.9525,-0.973664 z m -0.55033,0.497415 c 0.42333,0 0.68792,0.402166 0.68792,1.047747 0,0.455082 -0.14817,0.99483 -0.40217,1.513412 -0.30692,0.603248 -0.68791,0.93133 -1.09008,0.93133 -0.43392,0 -0.70908,-0.391582 -0.70908,-0.99483 0,-1.227663 0.77258,-2.497659 1.51341,-2.497659 z"
         style="font-style:italic;font-weight:500;font-family:Z003;-inkscape-font-specification:'Z003, Medium Italic'"
         id="path19732" />
      <path
         d="m -286.68096,37.113798 0.62441,-2.487076 0.26458,-0.169333 c 0.98425,-0.613831 1.10067,-0.677331 1.24883,-0.677331 0.0635,0 0.10583,0.05292 0.10583,0.137583 0,0.169333 -0.0741,0.476249 -0.39158,1.767411 -0.23283,0.931331 -0.27516,1.12183 -0.27516,1.322913 0,0.148166 0.0423,0.275165 0.15875,0.476248 0.47624,-0.211666 1.21708,-0.677331 1.95791,-1.227663 l 0.0741,-0.296332 c -1.02658,0.592665 -1.10066,0.624415 -1.2065,0.624415 -0.10583,0 -0.16933,-0.105833 -0.16933,-0.285749 0,-0.285749 0.0423,-0.465666 0.508,-2.14841 0.26458,-0.941914 0.26458,-0.941914 0.26458,-1.005414 0,-0.116416 -0.0741,-0.179916 -0.20108,-0.179916 -0.23283,0 -0.26458,0.02117 -1.40758,0.719665 -0.42333,0.264582 -0.6985,0.433915 -0.8255,0.518581 0.10584,-0.370415 0.254,-1.015996 0.254,-1.100663 0,-0.08467 -0.0529,-0.137583 -0.13758,-0.137583 -0.11642,0 -0.83608,0.370416 -1.66158,0.857247 l -0.0635,0.275166 c 0.67733,-0.306915 0.71967,-0.317499 0.81492,-0.317499 0.0741,0 0.12699,0.0635 0.12699,0.148166 0,0.232833 -0.19049,1.079497 -0.46566,2.063744 l -0.24342,0.857247 c -0.0212,0.07408 -0.0741,0.275166 -0.14816,0.571498 z"
         style="font-style:italic;font-weight:500;font-family:Z003;-inkscape-font-specification:'Z003, Medium Italic'"
         id="path19734" />
      <path
         d="m -280.75433,36.235384 -0.46567,1.100663 c 0.37042,0.497415 0.85725,0.730248 1.55575,0.730248 1.61924,0 3.20674,-1.31233 3.20674,-2.666992 0,-0.433915 -0.15875,-0.656164 -0.9525,-1.269996 -0.77258,-0.603248 -0.89958,-0.783164 -0.89958,-1.238246 0,-0.698498 0.51858,-1.280579 1.14299,-1.280579 0.4445,0 0.60325,0.190499 0.71967,0.86783 l 0.6985,-0.497415 c -0.0635,-0.571498 -0.381,-0.86783 -0.94192,-0.86783 -1.09008,0 -2.32832,1.195913 -2.32832,2.254243 0,0.486831 0.21166,0.814914 0.83608,1.301745 0.71966,0.571499 0.91016,0.857248 0.91016,1.34408 0,0.83608 -0.79375,1.555745 -1.71449,1.555745 -0.45508,0 -0.92075,-0.201083 -1.2065,-0.518582 -0.22225,-0.243416 -0.30691,-0.465665 -0.39158,-0.93133 z"
         style="font-style:italic;font-weight:500;font-family:Z003;-inkscape-font-specification:'Z003, Medium Italic'"
         id="path19736" />
      <path
         d="m -271.3458,35.928468 c -0.77258,0.529165 -0.9525,0.634998 -1.05833,0.634998 -0.0741,0 -0.127,-0.08467 -0.127,-0.211666 0,-0.285749 0.24342,-1.396995 0.635,-2.846907 0.11641,-0.169333 0.13758,-0.1905 0.30691,-0.380999 -0.50799,-0.116417 -0.86783,-0.15875 -1.33349,-0.15875 -0.43392,0 -0.64558,0.04233 -0.91017,0.211666 -0.38099,0.22225 -0.82549,0.550332 -0.96308,0.698498 -0.40216,0.444499 -0.83608,1.873244 -0.83608,2.730491 0,0.507999 0.16934,0.846664 0.43392,0.846664 0.23283,0 0.58208,-0.211666 1.90499,-1.164163 -0.11641,0.539749 -0.15875,0.804331 -0.15875,0.941914 0,0.148166 0.0635,0.222249 0.16934,0.222249 0.13758,0 0.22224,-0.04233 0.97366,-0.539748 0.35983,-0.243416 0.56091,-0.380999 0.9525,-0.666748 z m -1.86266,-0.07408 c -0.37042,0.275166 -0.56092,0.412749 -0.5715,0.423332 -0.34925,0.222249 -0.62441,0.359832 -0.762,0.359832 -0.17991,0 -0.27516,-0.190499 -0.27516,-0.529165 0,-0.539748 0.15875,-1.238246 0.43391,-1.852077 0.254,-0.582082 0.48683,-0.804331 0.84667,-0.804331 0.1905,0 0.55033,0.05292 0.89958,0.137583 -0.21167,0.761997 -0.28575,1.047747 -0.29634,1.100663 -0.0635,0.264583 -0.11641,0.529165 -0.17991,0.804331 -0.0106,0.05292 -0.0423,0.179916 -0.0953,0.359832 z"
         style="font-style:italic;font-weight:500;font-family:Z003;-inkscape-font-specification:'Z003, Medium Italic'"
         id="path19738" />
      <path
         d="m -271.84324,39.865456 c 0.33867,0.04233 0.78317,0.07408 1.16417,0.07408 0.74083,0 1.15358,-0.201083 1.76741,-0.846664 0.61383,-0.666748 0.65616,-0.772581 1.02658,-2.497659 0.37041,-1.693328 0.5715,-2.476492 0.93133,-3.672405 -0.13758,0.07408 -0.254,0.137583 -0.29633,0.15875 l -0.37042,0.179916 c -0.0953,0.04233 -0.15875,0.07408 -0.23283,0.116416 l -0.0952,0.380999 -0.22225,0.86783 -0.21167,0.867831 -0.11641,0.455082 c -1.05833,0.656164 -1.11125,0.687914 -1.30175,0.687914 -0.127,0 -0.22225,-0.137583 -0.22225,-0.338665 0,-0.296333 0.0847,-0.677332 0.45508,-2.074327 0.254,-1.05833 0.254,-1.05833 0.254,-1.132413 0,-0.07408 -0.0529,-0.127 -0.11641,-0.127 -0.11642,0 -0.78317,0.349249 -1.68275,0.878414 l -0.0317,0.285749 c 0.52917,-0.264582 0.61383,-0.296332 0.73025,-0.296332 0.10583,0 0.15875,0.05292 0.15875,0.158749 0,0.1905 -0.0741,0.497415 -0.32808,1.439329 -0.26459,0.96308 -0.30692,1.142996 -0.30692,1.428745 0,0.349249 0.15875,0.592665 0.37042,0.592665 0.127,0 0.27516,-0.07408 0.63499,-0.296332 0.91017,-0.571498 0.91017,-0.571498 1.35467,-0.888997 l -0.11642,0.560915 c -0.3175,1.513411 -0.37041,1.703911 -0.49741,1.979077 -0.17992,0.370415 -0.508,0.529165 -1.10067,0.529165 -0.3175,0 -0.55033,-0.04233 -1.17474,-0.1905 z"
         style="font-style:italic;font-weight:500;font-family:Z003;-inkscape-font-specification:'Z003, Medium Italic'"
         id="path19740" />
      <path
         d="m -267.20777,36.436467 c -0.0106,0.09525 -0.0212,0.179916 -0.0212,0.243415 0,0.465666 0.31749,0.772581 0.78316,0.772581 0.33867,0 0.78316,-0.126999 1.12183,-0.328082 0.635,-0.359832 1.00541,-0.89958 1.00541,-1.428745 0,-0.391583 -0.0635,-0.476249 -0.66674,-0.846664 -0.35984,-0.232833 -0.508,-0.433916 -0.508,-0.709082 0,-0.359832 0.30691,-0.677331 0.66674,-0.677331 0.24342,0 0.43392,0.116417 0.65617,0.412749 0.35983,-0.349249 0.35983,-0.349249 0.49741,-0.550332 -0.21166,-0.253999 -0.41274,-0.359832 -0.70908,-0.359832 -0.77258,0 -1.76741,0.910164 -1.76741,1.619245 0,0.328082 0.16934,0.582082 0.5715,0.867831 0.52917,0.370415 0.60325,0.465665 0.60325,0.730247 0,0.380999 -0.48683,0.825498 -0.89958,0.825498 -0.23283,0 -0.41275,-0.127 -0.51858,-0.359833 -0.0741,-0.158749 -0.0952,-0.317498 -0.10584,-0.687914 -0.11641,0.09525 -0.20108,0.148166 -0.24341,0.179916 -0.0847,0.05292 -0.17992,0.105833 -0.27517,0.169333 -0.0106,0 -0.10583,0.07408 -0.1905,0.127 z"
         style="font-style:italic;font-weight:500;font-family:Z003;-inkscape-font-specification:'Z003, Medium Italic'"
         id="path19742" />
    </g>
  </g>
</svg>
