<?xml version="1.0" encoding="UTF-8" standalone="no"?>
<!-- Created with Inkscape (http://www.inkscape.org/) -->

<svg
   width="210mm"
   height="297mm"
   viewBox="0 0 210 297"
   version="1.1"
   id="svg5"
   inkscape:version="1.1 (c68e22c387, 2021-05-23)"
   sodipodi:docname="drawing3.svg"
   xmlns:inkscape="http://www.inkscape.org/namespaces/inkscape"
   xmlns:sodipodi="http://sodipodi.sourceforge.net/DTD/sodipodi-0.dtd"
   xmlns="http://www.w3.org/2000/svg"
   xmlns:svg="http://www.w3.org/2000/svg">
  <sodipodi:namedview
     id="namedview7"
     pagecolor="#ffffff"
     bordercolor="#666666"
     borderopacity="1.0"
     inkscape:pageshadow="2"
     inkscape:pageopacity="0.0"
     inkscape:pagecheckerboard="0"
     inkscape:document-units="mm"
     showgrid="false"
     inkscape:zoom="1.3932941"
     inkscape:cx="599.65805"
     inkscape:cy="490.92293"
     inkscape:window-width="1920"
     inkscape:window-height="986"
     inkscape:window-x="-11"
     inkscape:window-y="-11"
     inkscape:window-maximized="1"
     inkscape:current-layer="layer2" />
  <defs
     id="defs2">
    <filter
       style="color-interpolation-filters:sRGB;"
       inkscape:label="Drop Shadow"
       id="filter13185"
       x="-0.081669768"
       y="-0.064608352"
       width="1.2313977"
       height="1.183057">
      <feFlood
         flood-opacity="0.498039"
         flood-color="rgb(0,0,0)"
         result="flood"
         id="feFlood13175" />
      <feComposite
         in="flood"
         in2="SourceGraphic"
         operator="in"
         result="composite1"
         id="feComposite13177" />
      <feGaussianBlur
         in="composite1"
         stdDeviation="3.0000002"
         result="blur"
         id="feGaussianBlur13179" />
      <feOffset
         dx="6"
         dy="6"
         result="offset"
         id="feOffset13181" />
      <feComposite
         in="SourceGraphic"
         in2="offset"
         operator="over"
         result="composite2"
         id="feComposite13183" />
    </filter>
    <filter
       y="-0.03286433"
       height="1.0657287"
       inkscape:menu-tooltip="Darkens the edge with an inner blur and adds a flexible glow"
       inkscape:menu="Shadows and Glows"
       inkscape:label="Dark and Glow"
       style="color-interpolation-filters:sRGB;"
       id="filter13415"
       x="-0.031517481"
       width="1.063035">
      <feGaussianBlur
         stdDeviation="5"
         result="result6"
         id="feGaussianBlur13405" />
      <feComposite
         result="result8"
         in="SourceGraphic"
         operator="atop"
         in2="result6"
         id="feComposite13407" />
      <feComposite
         result="result9"
         operator="over"
         in2="SourceAlpha"
         in="result8"
         id="feComposite13409" />
      <feColorMatrix
         values="1 0 0 0 0 0 1 0 0 0 0 0 1 0 0 0 0 0 1 0 "
         result="result10"
         id="feColorMatrix13411" />
      <feBlend
         in="result10"
         mode="normal"
         in2="result6"
         id="feBlend13413" />
    </filter>
  </defs>
  <g
     inkscape:groupmode="layer"
     id="layer2"
     inkscape:label="Layer 2" />
  <g
     inkscape:label="Layer 1"
     inkscape:groupmode="layer"
     id="layer1">
    <circle
       id="path6311"
       style="fill:#00ffff;stroke:#000000;stroke-width:0.264583"
       cx="217.24297"
       cy="154.57672"
       r="0.050588377" />
    <circle
       id="path6313"
       style="fill:#00ffff;stroke:#000000;stroke-width:0.264583"
       cx="217.24297"
       cy="154.57672"
       r="0.050588377" />
    <path
       style="fill:none;stroke-width:0.264583"
       id="path6383"
       d="m 185.90314,78.947625 c -1.10529,0.9279 -2.28389,1.769211 -3.49824,2.548076 -0.54219,0.347747 -1.19786,0.547766 -1.64882,1.007689 -0.41562,0.423886 2.06537,-1.170826 1.53921,-0.895906 -0.61975,0.323827 -1.21349,0.695167 -1.82024,1.042747 -1.40102,0.767792 -3.42422,1.868996 -4.75194,2.633776 -0.20619,0.118769 -7.0315,4.110009 -9.33307,5.421485 -8.18255,4.662564 -5.77262,3.293036 -14.28964,8.016173 -12.71712,7.150995 -25.69401,13.845525 -38.28197,21.226685 -2.76359,1.62047 -5.50066,3.28574 -8.25099,4.92861 -6.974113,4.31003 -13.700422,9.00431 -20.085016,14.14632 0,0 3.476424,-1.3972 3.476424,-1.3972 v 0 c 6.27096,-5.09049 12.904382,-9.7067 19.764822,-13.9691 4.27999,-2.76428 2.40914,-1.61733 8.88273,-5.29073 10.6017,-6.01585 21.36119,-11.74811 32.02476,-17.65243 5.46874,-3.020384 8.72934,-4.796973 14.09085,-7.848521 4.59634,-2.616042 9.13239,-5.342126 13.80218,-7.827505 4.11427,-2.349032 8.42208,-4.516588 12.02495,-7.633287 0,0 -3.646,1.543118 -3.646,1.543118 z" />
    <path
       style="fill:none;stroke-width:0.264583"
       id="path6385"
       d="m 145.60865,62.859046 c -1.61381,0.943486 -3.27657,1.80784 -4.84143,2.83046 -1.12143,0.73284 -2.138,1.614813 -3.2035,2.426813 -1.637,1.247535 -3.27273,2.496749 -4.904,3.751774 -7.15288,5.503119 -14.21895,11.113171 -21.28928,16.721648 -3.94964,3.19225 -12.078886,9.634354 -15.768786,13.130799 -2.455707,2.32696 -4.7757,4.79927 -7.007931,7.34139 -2.043314,2.32698 -4.071205,4.68728 -5.806589,7.25212 -4.558903,6.7379 -4.855966,9.00385 -7.629165,16.5968 -0.662056,2.9156 -1.542214,5.79013 -1.986166,8.7468 -0.911773,6.07235 -0.910497,12.82326 -0.254566,18.90865 0.686252,6.3667 2.353675,13.68016 4.087717,19.83916 0.816271,2.89924 1.832994,5.73827 2.749492,8.60741 2.263598,6.56866 5.578848,12.69146 9.979258,18.07527 1.428599,1.74786 4.320336,4.75365 6.354582,6.03826 0.920179,0.58108 1.99363,0.87349 2.990448,1.31023 1.062806,-0.1117 2.218996,0.11462 3.188416,-0.33509 2.38571,-1.10673 4.61965,-2.57122 6.65821,-4.23276 2.24127,-1.82677 7.80571,-9.23734 9.131,-11.01495 5.47828,-7.34801 6.02374,-8.40348 11.18787,-16.17448 3.44272,-5.74117 7.3188,-11.99032 10.40181,-17.95416 2.43135,-4.70325 5.5959,-11.77101 7.52947,-16.79607 2.15302,-5.59539 2.72323,-7.94118 4.34667,-13.50354 1.71972,-6.69773 0.85851,-3.14136 2.19832,-9.02916 0.20989,-0.92234 0.37949,-1.855 0.63424,-2.76597 0.12431,-0.44452 0.91854,-1.48653 0.50033,-1.29119 -4.09594,1.91315 -3.11742,2.08697 -2.19511,5.25055 4.91871,18.52072 10.20826,36.94092 15.37082,55.39469 3.67878,13.29623 7.31091,26.60826 11.22171,39.83895 1.25568,4.24814 3.66797,12.06463 4.99296,16.3788 1.91836,5.98156 3.71268,12.00804 5.79083,17.93771 0.37537,1.07105 0.73896,2.14864 1.19094,3.18968 0.23296,0.53658 0.27693,1.59426 0.85842,1.53061 1.55618,-0.17032 2.80544,-1.39009 4.20816,-2.08514 0.12382,-1.07775 0.29303,-2.15124 0.37145,-3.23324 0.65872,-9.08885 0.34438,-18.36059 0.41655,-27.45626 0.0705,-8.88722 0.31995,-21.62464 0.47579,-30.40053 0.4905,-19.05304 1.16512,-38.13857 3.31767,-57.09005 0.92958,-8.18428 1.58628,-11.60807 2.88339,-19.47572 1.07069,-5.98915 2.35558,-11.936 3.61062,-17.88812 0.56434,-2.67646 1.10071,-5.358004 1.71281,-8.023911 1.71774,-2.39505 -2.13226,0.622686 -2.51215,1.525768 -0.34862,0.82872 0.63705,1.684401 0.87352,2.551805 0.49815,1.827228 0.93049,3.672638 1.3282,5.524318 2.55579,11.8992 2.85013,14.42465 5.09447,27.29567 4.84613,28.20156 8.79362,56.55601 14.16149,84.66805 2.95108,15.45512 3.54688,17.43888 6.90413,31.91898 1.97296,7.69203 2.95202,11.89737 5.13778,19.17179 0.55723,1.85452 1.08411,3.72385 1.79612,5.52463 0.32534,0.8228 0.64523,1.72064 1.30271,2.31273 0.27298,0.24585 0.87496,0.14001 1.09079,-0.15725 1.48672,-2.04763 2.53097,-4.38255 3.79645,-6.57383 0.54032,-20.86879 0.10298,-41.74735 0.22812,-62.62033 0.10501,-17.5138 0.22354,-19.46572 0.63005,-36.15104 0.19906,-4.29737 0.38856,-15.93246 1.65907,-21.10509 0.29065,-1.18334 1.22848,-4.30456 1.75598,-3.20615 0.75487,1.57188 -1.07535,3.44343 -0.81408,5.16748 0.43863,2.89453 2.05913,5.48838 2.85576,8.30549 1.0623,3.75656 1.80971,7.59512 2.71457,11.39268 3.40319,17.60208 5.62222,35.40236 8.059,53.15639 0.23911,1.66452 0.44061,3.33562 0.78759,4.98192 0,0 3.45501,-1.87368 3.45501,-1.87368 v 0 c -0.49792,-1.56032 -0.76701,-3.17842 -1.07607,-4.78429 -3.11411,-17.57644 -5.55597,-35.2624 -8.7135,-52.83155 -0.82641,-3.84978 -1.53319,-7.72721 -2.47922,-11.54936 -1.06029,-4.28375 -0.98597,-11.77271 -8.11932,-10.45245 -1.10484,0.20449 -1.09637,2.0077 -1.28887,3.1147 -0.85113,4.89455 -0.84478,16.94608 -0.92396,20.76376 -0.16514,18.91802 -0.21018,37.83799 -0.46763,56.75508 -0.12103,8.89384 -0.35717,23.54936 -0.79558,32.92751 -0.14935,3.19493 -0.4341,6.38208 -0.65115,9.57314 0.81499,0.86596 1.94188,1.5204 2.44497,2.59789 0.16074,0.34428 -0.58471,0.87043 -0.91405,0.68096 -1.65918,-0.95448 -3.45967,-7.23614 -3.54174,-7.47614 -2.44997,-7.16485 -3.49091,-11.2436 -5.66966,-18.86467 -3.5999,-14.19585 -4.34054,-16.4529 -7.40653,-31.63503 -5.67573,-28.10499 -9.65822,-56.51667 -13.74598,-84.88381 -0.7964,-5.22533 -1.59233,-10.45074 -2.38921,-15.67599 -0.61487,-4.0317 -1.18132,-8.07109 -1.84603,-12.09487 -0.31469,-1.90493 -0.67478,-3.803248 -1.0917,-5.688444 -0.20954,-0.94742 0.13863,-2.509184 -0.78621,-2.802755 -3.36728,-1.068882 -3.68857,0.543473 -4.27955,2.177519 -1.65163,8.52456 -3.17355,17.07659 -4.69256,25.62538 -1.15694,7.75596 -1.76948,11.29921 -2.58767,19.35124 -1.92259,18.92065 -2.4479,37.95021 -2.99416,56.94779 -0.25107,10.17322 -0.44643,20.3478 -0.70995,30.52071 -0.11458,4.42344 -0.24353,8.84663 -0.40489,13.26861 -0.11627,3.18634 -0.38174,10.81512 -0.90762,14.57802 -0.14313,1.02417 -0.4753,2.01289 -0.71295,3.01934 0.92054,-0.41567 2.19349,-0.41193 2.76164,-1.24704 0.31771,-0.46698 -0.71043,-0.88837 -0.96625,-1.39193 -0.50885,-1.00157 -0.90925,-2.05547 -1.31699,-3.10229 -2.27247,-5.83413 -4.09962,-11.83238 -6.06845,-17.77123 -5.84131,-18.57755 -11.35063,-37.25784 -16.54671,-56.02645 -4.54207,-16.30221 -2.02922,-7.14915 -6.41056,-23.4068 -2.89888,-10.75674 -5.87968,-21.50281 -8.16851,-32.41091 -0.78368,-3.42363 0.0262,-4.48278 -4.56641,-1.83973 -0.38062,0.21905 -0.25897,0.84025 -0.35403,1.26898 -0.48547,2.18965 -0.76969,4.42122 -1.32084,6.59754 -0.37569,1.67937 -0.80015,3.34744 -1.20022,5.02116 -1.57706,5.64722 -2.02239,7.6785 -4.16975,13.37946 -4.61247,12.24546 -10.81954,23.6053 -17.82054,34.63434 -1.89057,2.82006 -3.72344,5.67967 -5.6717,8.46019 -2.68956,3.83848 -7.70949,10.57818 -10.88466,14.2686 -1.36953,1.59178 -2.94031,3.00085 -4.33787,4.56807 -0.1777,0.19927 -0.11746,0.62243 -0.36944,0.71069 -0.9823,0.34407 -2.05494,0.33226 -3.08242,0.49839 -0.99746,-0.3958 -2.069,-0.64066 -2.992399,-1.18741 -2.046705,-1.21186 -5.02412,-4.17053 -6.467231,-5.864 -4.490707,-5.26978 -7.844983,-11.32735 -10.19383,-17.82985 -2.505982,-7.58051 -3.611038,-10.21184 -5.244737,-18.23526 -1.949249,-9.57316 -2.739726,-19.26521 -1.254829,-28.97383 0.449593,-2.93957 1.319403,-5.7993 1.979105,-8.69896 2.823762,-7.61407 3.089708,-9.7455 7.667569,-16.50482 1.719831,-2.53938 3.712511,-4.88942 5.737024,-7.19324 2.227823,-2.53518 4.553368,-4.99121 7.006791,-7.30876 3.729297,-3.522774 11.807677,-9.912107 15.793867,-13.128215 7.17612,-5.664081 14.3455,-11.331832 21.63354,-16.85186 1.69413,-1.283153 3.39137,-2.562334 5.1004,-3.825587 1.13436,-0.838483 2.39297,-1.522555 3.42945,-2.479389 0.50577,-0.466897 -1.20899,0.658405 -1.81348,0.987608 0,0 3.08525,-2.438321 3.08525,-2.438321 z" />
    <path
       style="fill:none;stroke-width:0.264583"
       id="path6391"
       d="m 131.3302,127.11499 c 1.78095,7.86872 2.86634,15.92021 3.49289,23.961 0.2577,3.30719 0.37461,6.62385 0.56192,9.93577 -0.10663,8.78347 0.11395,12.82299 -1.09157,21.59155 -1.47411,10.72218 -4.45934,21.25265 -8.50817,31.27947 -1.05762,2.61917 -2.34346,5.1403 -3.51518,7.71044 -2.24736,3.51271 -4.23213,7.66054 -8.01944,9.92495 -0.72847,0.43555 -1.69726,0.0289 -2.54591,0.0415 -2.02284,0.03 -4.06161,0.3408 -6.06858,0.0861 -5.44979,-0.69154 -9.22236,-2.62358 -14.256108,-4.67049 -4.71901,-2.65136 -8.377912,-4.16711 -12.036657,-8.30346 -2.807534,-3.17402 -5.779855,-8.86889 -6.805015,-12.99399 -1.44595,-5.8183 -0.740566,-9.1769 -0.320511,-15.03114 0.661755,-2.4416 0.996773,-4.99623 1.985267,-7.3248 1.095682,-2.58107 2.617205,-4.97554 4.214595,-7.28006 5.096259,-7.35227 11.668585,-12.97667 19.493463,-17.25668 1.822016,-0.99659 3.825296,-1.6183 5.737946,-2.42745 2.93932,-0.99955 5.82942,-2.15764 8.81797,-2.99867 7.25112,-2.04061 13.33679,-2.871 20.88239,-3.68976 8.45197,-0.91711 15.5133,-1.25014 24.0477,-1.39094 4.01936,-0.0663 8.0398,0.0162 12.05969,0.0243 21.53084,0.46948 43.05989,1.076 64.57135,2.11278 2.87554,-2.05707 6.31725,1.5306 9.27714,0.61216 1.12761,-0.34989 3.74036,-1.49001 2.78677,-2.18614 -1.49324,-1.09006 -3.69494,0.15483 -5.54363,0.17363 -2.33087,0.0237 -19.20252,-0.11519 -19.80802,-0.11971 -18.10693,-0.2363 -36.21238,-0.68228 -54.3196,-0.88669 -13.95037,-0.15749 -52.14118,-0.31173 -64.6787,-0.39653 -12.370364,-0.0837 -24.740487,-0.19972 -37.110731,-0.29958 -29.423736,-0.28517 -58.8425323,-0.88712 -88.260289,-1.52033 0,0 -1.353741,0.98065 -1.353741,0.98065 v 0 c 29.7673428,0.1991 59.534652,0.41328 89.300665,0.76688 23.193108,0.26569 48.354986,0.5147 71.587696,0.93048 10.56176,0.18902 38.60124,0.83722 50.75015,1.18307 6.18553,0.17609 12.36918,0.41417 18.55455,0.59602 4.39762,0.12929 8.79616,0.22495 13.19424,0.33742 6.44395,0.15725 12.88971,0.2515 19.33194,0.46805 1.74845,0.0588 3.54616,0.68289 5.24216,0.25382 1.32268,-0.33463 3.43066,-1.05747 3.30401,-2.41593 -0.29814,-3.19788 -11.41731,4.99959 -9.62818,-0.36875 -21.63354,-0.77105 -43.27473,-1.33914 -64.91495,-1.87939 -8.99565,-0.007 -15.52377,-0.13322 -24.53574,0.35739 -3.85337,0.20978 -7.70029,0.54376 -11.53907,0.93901 -7.7873,0.8018 -13.30039,1.45605 -20.75785,3.52083 -2.99475,0.82916 -5.89129,1.97909 -8.83694,2.96864 -7.185998,3.56366 -12.522932,5.69325 -18.774171,10.4658 -4.419452,3.37405 -8.630115,7.85652 -11.777334,12.43637 -1.61009,2.34301 -3.152529,4.771 -4.255249,7.39132 -0.987827,2.34731 -1.308391,4.92248 -1.962586,7.38372 -0.391536,5.83907 -1.085774,9.36959 0.368601,15.17218 1.010553,4.03186 4.140436,10.03604 6.876913,13.13925 3.627135,4.11324 7.458945,5.73009 12.136699,8.3593 4.765164,1.98174 9.023614,4.11915 14.198797,4.871 5.63554,0.81873 9.46341,-0.40113 14.54385,-3.44 3.56688,-2.13353 5.71055,-6.65575 7.73428,-9.9386 1.12167,-2.55596 2.35016,-5.06767 3.36503,-7.6679 3.92593,-10.05881 6.90746,-20.59934 8.39046,-31.30647 1.19178,-8.60451 1.01105,-13.04495 1.1585,-21.67192 -0.14966,-3.33637 -0.23932,-6.67596 -0.44899,-10.0091 -0.51395,-8.17066 -1.43999,-16.32987 -2.82576,-24.39724 0,0 -3.46896,1.89683 -3.46896,1.89683 z" />
    <path
       style="fill:none;stroke-width:0.264583"
       id="path6393"
       d="m 139.67095,138.70092 c 2.04626,3.14345 3.50761,6.63316 4.82255,10.13162 2.06457,5.49285 2.99134,8.7347 4.35399,14.64927 0.67876,2.94615 1.20221,5.92595 1.80332,8.88892 0.56849,6.47263 1.45831,12.85635 0.73762,19.37668 -0.73101,6.61369 -2.70461,13.16437 -5.97409,18.9795 -4.48182,7.97141 -7.02975,9.37473 -13.64991,15.5322 -3.00295,1.89657 -5.85612,4.05415 -9.00884,5.68969 -2.23806,1.16106 -4.66802,1.92866 -7.08164,2.65765 -3.14609,0.95023 -6.32292,1.86369 -9.56988,2.37168 -6.07956,0.95114 -12.519414,0.85274 -18.497984,-0.73576 -3.369598,-0.8953 -6.517754,-2.47829 -9.776629,-3.71744 -3.118411,-1.70379 -6.364055,-3.19297 -9.35523,-5.11137 -3.144002,-2.01642 -6.113838,-4.30331 -9.007142,-6.6654 -7.491624,-6.11617 -14.242198,-13.26867 -18.979864,-21.76341 -1.285862,-2.30558 -2.194748,-4.80205 -3.292123,-7.20308 -0.637437,-2.33461 -1.463725,-4.62569 -1.91231,-7.00382 -1.169019,-6.19744 -0.894562,-12.68478 1.570027,-18.54997 1.995461,-4.74877 3.366092,-5.75919 6.656956,-9.64349 1.616268,-1.32643 3.134304,-2.78254 4.848807,-3.9793 1.088321,-0.75966 2.295953,-1.34771 3.519514,-1.86194 6.490372,-2.72773 10.609977,-3.94738 17.735846,-5.17013 10.616226,-1.82168 18.846675,-2.10398 29.774189,-2.89426 6.737383,-0.27554 13.472403,-0.61628 20.212133,-0.8266 29.79429,-0.92976 59.6106,-1.10489 89.41669,-1.18583 27.59065,-0.0749 32.07438,-0.0213 58.74194,0.069 20.03432,0.073 40.0682,0.22588 60.10187,0.3984 0,0 1.94694,-1.41401 1.94694,-1.41401 v 0 c -20.33342,0.10165 -40.66688,0.18781 -61.00046,0.25389 -30.41618,0.11651 -60.8325,0.2119 -91.24877,0.30111 -19.74588,0.0579 -36.76733,-0.0277 -56.31232,0.37252 -6.64864,0.13613 -13.29366,0.41253 -19.94049,0.61879 -13.044106,0.78787 -26.38603,1.04158 -39.071634,4.60017 -6.487856,1.81999 -11.295904,4.24914 -17.015351,8.00492 -1.76136,1.15662 -3.236614,2.69908 -4.854919,4.04862 -3.276097,3.94145 -4.648271,4.97019 -6.603717,9.77354 -2.407639,5.91414 -2.603555,12.45072 -1.366821,18.65715 0.475313,2.38532 1.329629,4.67918 1.994445,7.01877 1.129236,2.4013 2.070928,4.9001 3.387709,7.20391 4.858184,8.49976 11.704386,15.57168 19.236549,21.72911 2.896746,2.36805 5.844434,4.69375 8.984562,6.72806 2.989302,1.93659 6.239473,3.43719 9.359212,5.15579 8.359913,3.29988 10.069505,4.82439 18.944854,5.2043 5.963881,0.2553 13.451761,-0.90435 19.036701,-2.93755 4.19484,-1.52714 8.23961,-3.4714 12.17647,-5.57616 3.13908,-1.67823 6.00064,-3.83059 9.00097,-5.74589 6.62652,-6.22159 9.16392,-7.63075 13.63834,-15.66324 3.23779,-5.81249 5.25027,-12.50763 5.96635,-19.10791 0.66916,-6.16795 -0.22049,-13.34201 -0.72285,-19.45705 -1.17905,-5.95807 -2.14159,-11.44609 -3.7731,-17.29572 -0.60808,-2.18023 -1.38113,-4.31156 -2.1263,-6.44882 -1.24869,-3.58146 -2.56001,-7.16362 -4.4513,-10.46554 0,0 -3.37488,2.00839 -3.37488,2.00839 z" />
    <path
       style="fill:none;stroke-width:0.264583"
       id="path6395"
       d="m 100.9211,20.77389 c -3.727327,2.178299 -6.729556,5.339057 -9.648254,8.4686 -4.128815,4.717355 -7.808937,9.947847 -10.307656,15.726312 -0.492623,1.139219 -0.876795,2.322328 -1.315194,3.483491 -1.002633,3.501843 -1.650439,6.344388 -1.094472,9.997742 0.162729,1.069332 0.375255,2.142241 0.74867,3.157381 0.965089,2.62363 2.525395,4.870289 3.98046,7.226472 3.297068,5.163222 7.469516,9.676738 11.04246,14.637152 0.823034,1.14264 1.65867,2.28138 2.375087,3.493717 0.703758,1.190916 1.251165,2.467552 1.876748,3.701328 0.555832,3.501768 1.239512,5.820394 0.513784,9.407675 -0.6135,3.03254 -2.75027,7.52223 -4.649512,9.92165 -3.004804,3.79613 -5.760434,5.32265 -9.651431,8.07511 -3.568621,1.17646 -6.502763,2.23207 -10.380705,2.90366 -4.535903,0.78553 -9.157049,0.83937 -13.720971,0.30249 -5.104014,-0.60042 -6.708278,-1.33928 -11.444441,-2.83895 -4.173535,-1.47291 -8.068225,-3.57375 -11.923387,-5.71728 0,0 -3.169917,2.07177 -3.169917,2.07177 v 0 c 3.976758,2.07795 7.977518,4.1385 12.23695,5.59102 4.753834,1.47565 6.48503,2.23551 11.587003,2.84321 4.588632,0.54655 9.244404,0.51145 13.810723,-0.24568 2.348469,-0.38939 4.710618,-0.85706 6.935195,-1.70452 3.186123,-1.21376 6.140921,-2.96437 9.211381,-4.44655 3.934722,-2.83219 6.63157,-4.34408 9.659885,-8.23446 1.909617,-2.45323 4.041904,-7.03283 4.648454,-10.10929 0.70824,-3.592264 0.006,-6.08693 -0.54203,-9.599644 -0.63509,-1.246193 -1.18926,-2.537047 -1.905268,-3.738576 -0.724329,-1.215495 -1.573641,-2.352913 -2.406409,-3.496844 -3.589653,-4.93092 -7.740544,-9.447107 -11.004248,-14.617224 -1.553351,-2.555004 -2.835344,-4.349977 -3.834829,-7.175108 -1.563666,-4.419833 -0.89064,-8.577966 0.400291,-12.939141 0.439841,-1.149567 0.827061,-2.320673 1.319522,-3.448701 2.521175,-5.774999 6.237322,-10.98324 10.424358,-15.657112 2.99302,-3.149174 6.073713,-6.315612 9.903923,-8.452738 0,0 -3.67617,1.413038 -3.67617,1.413038 z" />
    <path
       style="fill:none;stroke-width:0.264583"
       id="path6397"
       d="m 89.579764,61.193433 c -1.387481,1.547289 -2.698901,3.166314 -4.162441,4.641869 C 78.913304,72.3927 70.590115,79.709573 63.773142,85.533935 57.921823,90.533251 52.000906,95.451273 46.047784,100.32892 27.747563,115.32307 18.450633,122.5102 -0.30074748,137.30052 -7.6500071,143.0114 -14.999267,148.72228 -22.348526,154.43316 c 0,0 1.196052,-0.47821 1.196052,-0.47821 v 0 C -13.886481,148.27717 -6.6204882,142.59939 0.64550464,136.92161 16.56275,124.40007 31.909972,112.41879 47.644854,99.684781 53.760478,94.735495 59.844003,89.7457 65.866515,84.683525 c 6.932919,-5.827416 15.935697,-13.5793 22.661408,-20.153016 1.576475,-1.540846 3.004439,-3.226649 4.506659,-4.839975 0,0 -3.454818,1.502899 -3.454818,1.502899 z" />
    <path
       style="fill:none;stroke-width:0.264583"
       id="path6399"
       d="m 119.96291,61.855937 c -0.3696,0.268078 -0.74593,0.527124 -1.10881,0.804238 -1.23094,0.940014 -2.43492,1.915189 -3.67221,2.846821 -6.29466,4.739629 -11.09846,8.1148 -17.959216,12.876675 -5.104522,3.542917 -10.21651,7.075866 -15.376694,10.537214 -6.242185,4.187132 -12.552675,8.271523 -18.829015,12.407285 -16.612782,10.67643 -20.135955,13.00613 -36.369529,23.19817 -4.670889,2.93255 -15.631202,10.41423 -22.2469379,12.70342 -6.6604622,2.30466 -5.4913408,2.26805 -7.582818,-1.98058 1.8124066,-2.52816 3.37061947,-5.2595 5.4372198,-7.58449 C 10.842911,118.0029 17.9733,112.81606 29.412173,105.82954 41.064984,98.712357 58.819404,90.253509 71.386818,85.47918 c 7.540144,-2.86448 15.350805,-4.958715 23.026206,-7.438075 8.094836,-1.476891 16.104646,-3.537606 24.284496,-4.430673 16.21002,-1.769793 33.16732,-1.142479 49.33048,0.742601 12.065,1.407117 25.83418,4.11708 37.44313,8.135519 4.2682,1.477433 8.27617,3.620238 12.41426,5.430359 5.41288,3.783528 10.06523,5.955781 13.39643,11.794635 0.9593,1.681444 2.12304,3.726474 1.58677,5.586554 -1.62436,5.63419 -10.1741,6.9364 -14.18003,7.81333 -6.42012,1.40543 -12.93501,2.3363 -19.40252,3.50444 -7.65146,0.66486 -15.28637,1.56039 -22.95438,1.99458 -7.58418,0.42945 -15.18489,0.57964 -22.7812,0.59515 -17.17474,0.0351 -34.4362,-0.97569 -51.33784,-4.17786 -3.998529,-0.75756 -7.930681,-1.83106 -11.896018,-2.74658 -10.004785,-2.47119 -19.57274,-6.28089 -29.197257,-9.88776 0,0 -3.095485,2.09392 -3.095485,2.09392 v 0 c 9.964248,3.23232 19.759863,7.01896 29.989988,9.39005 4.019799,0.88588 8.005861,1.94183 12.059402,2.65764 17.1477,3.02806 34.66477,3.80561 52.04339,3.71803 7.60096,-0.0383 15.20471,-0.19734 22.79545,-0.59321 7.57758,-0.39519 15.12934,-1.18611 22.69401,-1.77916 13.06772,-2.12954 22.14514,-2.23963 33.69405,-8.89194 2.03061,-1.16966 4.00412,-3.06429 4.57625,-5.33676 0.48031,-1.90774 -0.78833,-3.938852 -1.81907,-5.614488 -3.57453,-5.811004 -8.3529,-7.902971 -13.9533,-11.600158 -4.24626,-1.750677 -8.37248,-3.826875 -12.73876,-5.25203 -11.79696,-3.850518 -25.80526,-6.43778 -37.9986,-7.792505 -16.02876,-1.780858 -33.33107,-2.467481 -49.39759,-0.743569 -8.17156,0.876794 -16.1747,2.924352 -24.262043,4.386529 -7.685555,2.480419 -15.505083,4.578763 -23.056661,7.441258 -14.583016,5.527826 -31.786698,14.030198 -45.070728,22.071123 -11.277093,6.82611 -19.5474056,12.70514 -28.1273638,22.33043 -2.2263256,2.49757 -3.8686499,5.45995 -5.8029747,8.18992 2.6434627,4.34238 1.5489174,4.79532 8.511602,1.95254 8.2776315,-3.37967 19.0424535,-10.59306 26.3765015,-15.23121 15.360552,-9.71421 20.408767,-13.00196 36.139043,-23.1116 6.394257,-4.183169 12.820996,-8.317096 19.18277,-12.549498 5.277765,-3.51123 10.501807,-7.102649 15.734593,-10.680562 8.116581,-5.549709 16.172231,-11.14085 24.032041,-17.04468 0,0 -3.66295,1.450467 -3.66295,1.450467 z" />
    <path
       style="fill:none;stroke-width:0.264583"
       id="path6401"
       d="m 25.89904,123.87179 c 4.421551,-4.67606 9.530565,-8.8288 15.33093,-11.7073 2.750362,-1.3649 5.681877,-2.35096 8.612656,-3.26639 16.050577,-5.01337 16.114101,-4.31341 33.657264,-7.05444 12.162351,-0.7118 24.12448,-1.878183 36.31784,-0.87157 4.77797,0.39444 9.53038,1.21668 14.19079,2.34149 3.76488,0.90866 7.56266,1.95602 11.00101,3.73863 8.01883,4.15735 8.68072,7.12809 13.38475,14.28748 1.03987,3.13402 2.36044,6.18848 3.11962,9.40206 1.38972,5.88268 1.75495,13.20631 1.82082,19.2387 0.0488,4.47283 -0.20547,9.61443 -0.69179,14.12063 -0.14116,1.30808 -0.38794,2.60259 -0.58191,3.90388 -0.211,0.25927 -0.84702,1.03462 -0.633,0.77782 1.05296,-1.26348 2.56673,-2.26006 3.1499,-3.79792 0.52779,-1.3918 -0.0605,-2.97764 -0.0163,-4.46548 0.0603,-2.02925 0.20331,-4.0553 0.32974,-6.0815 0.25984,-4.16395 0.67128,-9.40908 0.9871,-13.57486 0.12355,-4.80391 1.29986,-11.86158 -2.83081,-15.6357 -4.06078,-3.71026 -11.19577,-4.7384 -16.04681,-5.46995 -4.7837,-0.72139 -9.6245,-0.99283 -14.43675,-1.48924 -15.57977,-1.15012 -31.19759,-1.5916 -46.807369,-2.09819 -8.554595,-0.27763 -17.103476,-0.50576 -25.647745,-1.01049 -0.825206,-0.10819 -1.657516,-0.17169 -2.475624,-0.32457 -1.706628,-0.31893 0.291402,-2.4992 -3.196563,1.88745 -0.233556,0.29373 0.736795,-0.14626 1.109133,-0.19308 0.910841,-0.11454 2.066197,-0.15875 2.973287,-0.20738 2.168625,-0.073 1.060161,-0.0546 3.325471,-0.05 0,0 3.100967,-2.24924 3.100967,-2.24924 v 0 c -2.26345,-0.0312 -1.155213,-0.0408 -3.324754,0.0229 -1.368311,0.058 -1.630418,0.0577 -2.95733,0.15632 -0.371965,0.0276 -0.786199,-0.0799 -1.114793,0.0966 -5.80549,3.11811 -4.010538,2.58833 -0.241694,2.87888 24.385849,0.61298 48.811354,0.53753 73.137454,2.59512 4.69999,0.56223 9.43267,0.89772 14.09995,1.68668 4.58143,0.77443 11.59017,1.99209 15.45021,5.53182 4.07305,3.73507 2.98291,10.59975 2.89507,15.3668 -1.12591,15.19001 0.14557,-1.83045 -1.03877,13.60465 -0.15769,2.05513 -0.34153,4.10861 -0.46072,6.16633 -0.0892,1.54057 -1.06007,3.36991 -0.16439,4.62653 2.76048,3.87294 3.61509,0.86522 4.08058,-0.35333 0.12894,-1.27654 0.29604,-2.5498 0.3868,-3.82962 0.30804,-4.34363 0.47606,-9.75749 0.38293,-14.00432 -0.13157,-5.99999 -0.52111,-13.44155 -1.90847,-19.28742 -0.76866,-3.23889 -2.09888,-6.3182 -3.14832,-9.47731 -4.78906,-7.24152 -5.43974,-10.24516 -13.64634,-14.35549 -3.52198,-1.76401 -7.40753,-2.74829 -11.24868,-3.62102 -4.74585,-1.07828 -9.57825,-1.852265 -14.43161,-2.213651 -11.7741,-0.876716 -24.745502,0.262705 -36.441988,0.917691 -6.082829,0.89646 -12.218736,1.48665 -18.248489,2.68937 -5.052565,1.00781 -10.086718,2.22495 -14.947752,3.93212 -7.743391,2.71944 -14.923881,6.37049 -21.5969,11.07695 -3.643992,2.5701 -5.194153,4.26645 -8.113563,7.14286 0,0 3.554979,-1.50032 3.554979,-1.50032 z" />
    <path
       style="fill:none;stroke-width:0.264583"
       id="path6403"
       d="m 26.445002,179.34154 c -0.0096,-0.39739 -0.07173,-0.79699 -0.02876,-1.19217 0.677313,-6.22965 2.605464,-12.20368 5.118984,-17.92939 4.897612,-11.15658 7.521189,-14.7051 13.991669,-25.53046 3.133344,-4.58262 6.153076,-9.24503 9.400035,-13.74787 5.908566,-8.19391 12.318934,-16.12257 18.793891,-23.875099 4.159612,-4.980339 9.240075,-10.864469 13.767501,-15.655051 1.580142,-1.67199 3.24462,-3.262215 4.866931,-4.893321 2.502434,-2.230326 3.959468,-3.704175 6.615382,-5.526156 0.673822,-0.462248 1.310805,-1.382549 2.115235,-1.239017 0.70952,0.126595 -1.390274,0.66885 -1.720569,1.309433 -0.170006,0.329718 0.735649,-0.125095 1.106559,-0.118599 0.27842,0.0049 0.54759,0.101578 0.82138,0.152368 1.54396,0.758288 2.51768,2.267937 3.64772,3.512455 1.42879,1.760691 2.62534,3.692736 3.75187,5.655873 1.33496,2.13478 2.23549,4.486889 3.11709,6.833441 1.06919,2.801054 2.20792,5.565556 3.08908,8.433597 1.23001,4.617876 1.9004,9.355746 2.51782,14.086606 0.65556,5.18939 0.81161,10.42059 0.89884,15.64465 0.0657,6.36658 0.17576,12.73702 -0.028,19.10169 -0.16265,3.57343 -0.47337,7.1466 -1.17847,10.65771 -0.23815,1.18587 -0.56724,2.44789 -0.86115,3.62348 -0.73586,2.6946 -1.57348,5.35938 -2.35035,8.0423 -0.51374,1.79203 -1.15502,3.5438 -1.69901,5.32605 -0.29576,0.92579 -0.72259,1.79902 -0.96878,2.74017 -0.17603,1.02214 -0.45674,2.02082 -0.65501,3.03799 -0.21117,1.13331 -0.74113,2.01955 -1.67076,2.68982 -1.47369,0.74808 -0.30048,0.1625 2.56539,-1.52381 0.13295,-0.0782 -0.27076,0.1479 -0.407,0.22025 -0.38197,0.20285 -0.75937,0.37241 -1.1653,0.52066 -0.10144,0.0164 -0.23704,0.12698 -0.30431,0.0493 -0.0904,-0.10438 -0.0128,-0.27598 -0.0115,-0.41404 0.003,-0.34376 -0.008,-0.68882 0.025,-1.03102 0.071,-0.7394 0.17301,-1.47581 0.28623,-2.20992 0.25054,-1.62437 1.05732,-5.91917 1.28894,-7.17698 2.14445,-10.69199 3.35077,-21.54028 4.448,-32.38059 0.21509,-2.707 0.57905,-5.40807 0.6402,-8.1263 0.0108,-0.48076 0.0505,-0.96688 -0.0205,-1.44249 -0.15907,-1.06585 -0.4868,-1.42036 -1.01951,-2.3116 -0.74167,-0.49746 -1.42077,-1.10415 -2.22502,-1.49238 -4.31131,-2.08112 -10.2076,-3.55238 -14.576575,-4.45086 -5.476927,-1.12632 -10.991071,-2.08583 -16.527658,-2.86785 -20.719435,-2.92654 -31.971524,-3.49981 -53.560198,-5.28529 -11.055944,-0.67938 -22.1079101,-1.42689 -33.1678277,-2.03815 -19.8606103,-1.09766 -43.0304303,-2.09129 -63.0176533,-2.84822 -15.554463,-0.58906 -28.787672,-1.0218 -44.166098,-1.32271 -4.7665,-0.0933 -9.53402,-0.12337 -14.30103,-0.18506 -6.68418,0.0769 -10.45723,0.011 -16.76738,0.41114 -1.44549,0.0917 -4.71032,0.37075 -6.42762,0.78094 -1.57196,0.37547 -3.88315,2.36251 -4.61049,2.86286 0.11256,0.19764 0.19036,0.41963 0.33768,0.59292 0.70379,0.82789 2.24587,1.29383 3.24788,1.62646 2.44667,0.70494 5.05896,0.54778 7.57208,0.57605 35.85874,0.0682 71.715717,0.67019 107.567676,1.3318 45.626533,1.08529 91.283347,1.9461 136.843774,4.79313 5.04774,0.31543 10.08984,0.71549 15.13476,1.07324 9.37556,0.68568 18.74102,1.52656 28.03556,2.94661 0,0 2.97787,-2.10282 2.97787,-2.10282 v 0 c -9.6265,-1.14721 -19.30042,-1.78177 -28.97961,-2.30238 -5.16507,-0.27266 -10.32855,-0.57745 -15.49522,-0.81799 -45.87064,-2.13559 -91.792993,-2.83373 -137.689305,-4.18836 -18.706732,-0.50846 -37.415097,-0.95702 -56.121159,-1.48958 -6.653988,-0.18943 -13.305876,-0.44841 -19.959886,-0.63731 -9.7762,-0.27754 -19.55551,-0.46185 -29.33117,-0.76275 -2.43002,-0.0924 -4.92304,-0.0588 -7.30398,-0.6324 -1.10214,-0.33423 -2.4816,-0.69851 -3.23068,-1.62109 -1.02797,0.52565 -2.0559,1.05137 -3.08391,1.57695 -0.36166,0.1849 0.69648,-0.43605 1.08489,-0.55492 0.79183,-0.24232 1.61137,-0.38994 2.4291,-0.52048 7.16194,-1.14333 14.45337,-1.13923 21.67733,-1.42308 4.89982,-0.0359 9.79952,-0.11512 14.69947,-0.10775 15.360664,0.0231 29.539267,0.27323 44.99241,0.72155 32.08203,0.93075 64.1550824,2.392 96.155847,4.90079 21.571614,2.06261 31.927498,2.63548 52.500633,6.01262 5.362305,0.88024 10.693082,1.96802 15.981529,3.21761 4.242461,1.00243 9.790521,2.62243 13.919431,4.75152 0.73329,0.37812 1.35019,0.94856 2.02528,1.42283 0.51907,0.8564 0.77955,1.10276 0.94311,2.12669 0.0734,0.45971 0.057,0.92984 0.0588,1.39538 0.0103,2.67376 -0.28661,5.33802 -0.44192,8.00359 -0.91633,10.85246 -2.14209,21.69312 -4.46364,32.34783 -0.57727,2.76195 -0.99226,4.61203 -1.46432,7.28304 -0.14224,0.80488 -0.78976,3.36535 -0.11665,4.32289 0.0738,0.10501 0.25507,0.0291 0.3826,0.0436 0.57963,-0.16648 1.09377,-0.39187 1.61798,-0.69039 3.89227,-2.21649 2.59269,-1.34877 4.18287,-2.42865 0.86537,-0.7937 1.35208,-1.77378 1.55353,-2.93359 0.2155,-1.00953 0.46892,-2.01056 0.68365,-3.02038 0.27566,-0.92111 0.68408,-1.79559 0.949,-2.72113 0.53623,-1.77283 1.14183,-3.52453 1.64639,-5.30715 0.77042,-2.67674 1.60062,-5.33679 2.29654,-8.03434 1.11892,-4.69203 1.77473,-9.4652 1.8881,-14.29441 0.17897,-6.37716 0.0474,-12.75901 0.0601,-19.1381 -0.10197,-5.23532 -0.22842,-10.48038 -0.92432,-15.67801 -0.61102,-4.76236 -1.26704,-9.528921 -2.46473,-14.186421 -0.86599,-2.883289 -1.98315,-5.665721 -3.0743,-8.469302 -0.88091,-2.369193 -1.76534,-4.756719 -3.12734,-6.901426 -1.14996,-1.980239 -2.34268,-3.947043 -3.7693,-5.743212 -1.18991,-1.300332 -2.20317,-2.848393 -3.77802,-3.714089 -0.30356,-0.07715 -0.59842,-0.207185 -0.9107,-0.231449 -2.27867,-0.177054 -4.057591,1.422431 -6.02503,2.474941 -3.154018,1.687288 -5.696833,4.297839 -8.298574,6.688828 -1.553551,1.607492 -3.147078,3.177289 -4.660651,4.822478 -4.326139,4.702334 -9.326404,10.629355 -13.304255,15.474368 -6.218831,7.574514 -12.847,15.871484 -18.55637,23.794824 -3.259132,4.52296 -6.308177,9.19365 -9.462267,13.79048 -6.738199,11.08092 -9.252828,14.44782 -14.510787,25.81843 -3.046779,6.58881 -3.674982,8.53917 -5.093695,14.71103 -0.792459,3.44746 -0.704552,2.65683 -0.757934,4.92388 0,0 3.516604,-1.79181 3.516604,-1.79181 z" />
    <path
       style="fill:none;stroke-width:0.264583"
       id="path6405"
       d="m 16.023216,159.3194 c 2.542914,-4.2612 3.276998,-5.62258 6.524841,-10.24576 10.292846,-14.65149 21.534815,-28.86277 32.812205,-42.7515 C 60.41137,100.10143 65.575378,93.973244 70.682934,87.798792 82.449018,74.056739 88.242107,66.98104 100.39237,53.94548 c 4.17248,-4.476491 8.35402,-8.953437 12.77484,-13.184846 4.93875,-4.727139 10.27225,-10.972589 17.66343,-12.011602 2.40035,-0.337431 4.8347,0.357621 7.25205,0.536435 1.93105,1.813041 4.39634,3.188568 5.79315,5.439127 3.81737,6.150623 6.8167,18.983163 7.89404,25.588695 1.65183,10.127895 2.41824,24.115463 2.34957,34.362881 -0.0365,5.44037 -0.50221,10.86938 -0.75332,16.30407 -0.85607,8.33129 -1.4017,16.7051 -3.2979,24.89432 -0.55449,2.39469 -0.98881,4.92262 -2.28481,7.01126 -0.63105,1.017 -2.10951,2.33993 -3.14297,1.7362 -1.05543,-0.61657 0.36404,-2.55769 -0.15645,-3.66367 -0.96415,-2.0487 -2.74143,-3.60439 -4.11215,-5.40658 -9.82162,-17.00455 -0.45417,-0.50617 -10.49328,-19.11022 -1.93967,-3.5945 -3.9199,-7.1674 -5.94011,-10.71725 -3.92354,-6.894311 -6.82102,-12.333904 -12.06645,-18.288193 -2.0688,-2.348365 -4.54055,-4.308401 -6.81082,-6.462601 -2.59667,-1.408039 -5.003,-3.245424 -7.790015,-4.224113 -7.287075,-2.558931 -14.319102,-2.184059 -21.898319,-1.351449 -4.892561,0.537469 -9.73995,1.452972 -14.567866,2.410708 -10.700869,2.122776 -19.008478,4.495581 -29.49172,7.276008 0,0 -2.036402,1.562266 -2.036402,1.562266 v 0 c 10.806096,-2.901854 18.414391,-5.139904 29.473244,-7.294102 4.756002,-0.926441 9.534932,-1.790681 14.35427,-2.292527 7.438924,-0.774626 14.387745,-1.072377 21.540861,1.406202 2.776898,0.962208 5.193917,2.75159 7.790877,4.127384 2.29165,2.121058 4.78541,4.042754 6.87496,6.363171 5.18079,5.753211 8.37249,11.451486 12.19562,18.164636 2.02028,3.54747 3.96611,7.13748 5.876,10.7456 1.80004,3.40057 3.5018,6.85227 5.2527,10.27841 1.62297,3.03402 3.24594,6.06803 4.86891,9.10205 1.31489,1.89175 1.94604,4.5293 3.94465,5.67524 1.55351,0.89074 7.80062,1.38987 9.30952,-1.44406 1.12197,-2.10722 1.4747,-4.55248 1.94181,-6.89364 1.61015,-8.07009 2.09347,-16.53782 2.81686,-24.68928 0.2218,-5.42638 0.64556,-10.848267 0.6654,-16.279141 0.0342,-9.371473 -0.77539,-25.250719 -2.15608,-34.516581 -0.90126,-6.048428 -3.98868,-20.242831 -7.41384,-26.062077 -1.3782,-2.341534 -3.91042,-3.773271 -5.86562,-5.659906 -2.51299,-0.169661 -5.09816,-1.130597 -7.53896,-0.508984 -9.67378,2.463686 -15.15499,7.991327 -22.09229,14.745695 -4.31801,4.204136 -8.40514,8.641103 -12.489035,13.072996 C 86.937537,67.373253 80.527013,75.145283 69.165162,88.444117 58.672901,101.07377 49.361735,112.15172 39.135669,124.96471 c -3.679995,4.61093 -7.272703,9.29103 -10.870698,13.96623 -2.918759,3.7926 -5.848342,7.57805 -8.679206,11.4367 -2.967523,4.04493 -4.589051,6.65734 -7.140681,10.6204 0,0 3.578132,-1.66864 3.578132,-1.66864 z" />
    <path
       style="fill:none;stroke-width:0.264583"
       id="path6407"
       d="m 35.068779,146.43673 c -0.512355,-5.10884 -0.614579,-10.23338 -0.268123,-15.3581 0.156692,-2.31777 0.296045,-4.64225 0.639379,-6.9398 0.436062,-2.91809 1.130586,-5.79167 1.695878,-8.6875 1.171893,-3.52184 2.088732,-7.13908 3.515681,-10.56553 2.940303,-7.060366 8.485973,-16.955179 12.526374,-23.434766 3.017708,-4.839494 8.964724,-13.423091 12.796192,-18.01318 1.784218,-2.137487 3.808484,-4.062585 5.712725,-6.093878 1.754171,-1.418497 3.308847,-3.127476 5.26252,-4.255492 0.804143,-0.464299 1.835785,-0.287893 2.760093,-0.376627 1.826279,-0.175326 3.670398,-0.662455 5.48834,-0.415234 4.762624,0.647668 8.999138,3.372366 12.531407,6.434259 2.315605,2.007246 4.245025,4.420857 6.367535,6.631284 2.01383,2.855402 4.22505,5.581343 6.04149,8.566205 8.82026,14.493931 13.66531,31.012739 17.06216,47.508259 0.8172,3.96841 1.41435,7.97898 2.12153,11.96847 1.33649,8.53234 2.23394,17.12381 2.85741,25.73492 0.0951,1.31333 0.14275,2.62982 0.23854,3.94311 0.0105,0.144 0.005,0.54921 0.0801,0.42569 1.20974,-1.99854 2.25262,-4.09344 3.37893,-6.14016 -0.49412,-17.76968 -0.48186,-35.54697 -0.57807,-53.32142 -0.0683,-12.615372 -0.11409,-14.443947 -0.27306,-26.434305 -0.13714,-2.66587 0.0328,-12.972005 -2.35305,-16.024005 -4.21953,-5.39754 -13.93963,-2.855426 -18.52428,-1.99299 -7.22454,1.359035 -14.333014,3.30236 -21.406086,5.305528 -11.177645,3.165628 -22.218112,6.797006 -33.32717,10.195507 -62.2683134,19.648553 -124.431894,39.634195 -186.474484,59.984805 -4.07595,1.35364 -13.18,4.35274 -17.90679,5.99412 -0.13989,0.0486 -5.09492,1.78246 -6.10847,2.30571 -1.40181,0.7237 -2.74104,1.56269 -4.11156,2.34403 0,0 3.64823,-1.40307 3.64823,-1.40307 v 0 c -0.83265,0.46625 -1.95252,0.61568 -2.49795,1.39875 -0.46001,0.66042 1.46096,-0.6772 2.20652,-0.98036 7.52388,-3.05935 15.30224,-5.44653 22.92733,-8.22715 62.284717,-21.28953 124.8890329,-41.647624 187.798104,-61.01615 10.781638,-3.150132 21.497533,-6.534695 32.344918,-9.450398 6.83237,-1.836494 13.704768,-3.585961 20.674558,-4.800875 4.22724,-0.736854 13.77136,-2.966154 17.83015,1.943441 2.52159,3.05018 2.54933,12.928558 2.76076,15.713699 0.12182,3.975749 0.27555,7.950645 0.36547,11.927242 0.26809,11.856301 0.26837,18.012111 0.25454,30.046981 -0.0103,8.99132 -0.0624,19.7049 -0.21434,28.78034 -0.0521,3.11034 -0.15097,6.21972 -0.22646,9.32957 1.07623,0.83327 2.17799,1.63455 3.22868,2.4998 0.0764,0.0629 -0.26769,0.0201 -0.28662,-0.077 -0.24562,-1.25982 -0.32829,-2.54611 -0.47344,-3.82142 -0.96973,-8.5205 -1.84805,-17.05535 -3.34799,-25.50619 -0.73111,-3.98224 -1.35529,-7.9856 -2.19332,-11.94671 -0.89035,-4.20837 -1.88023,-8.39749 -2.99005,-12.55338 -1.16331,-4.35621 -2.35574,-8.711857 -3.82694,-12.973956 -2.47031,-7.156553 -6.20531,-15.636517 -10.09369,-22.189849 -1.7892,-3.015441 -3.97117,-5.779818 -5.95675,-8.669727 -2.09494,-2.25216 -3.99665,-4.700934 -6.28482,-6.756476 -3.436301,-3.086939 -7.756489,-6.026775 -12.479381,-6.748669 -1.843397,-0.281763 -3.791183,-0.151855 -5.58237,0.366937 -7.722565,2.236735 -8.193013,3.427825 -13.656312,7.965652 -1.848519,2.019411 -3.815191,3.936703 -5.545555,6.05823 -2.090619,2.56322 -4.010192,5.263788 -5.90196,7.97709 -5.097415,7.311067 -8.973259,13.514046 -13.225756,21.415721 -2.135632,3.968277 -4.274942,7.948147 -6.047566,12.091327 -1.484185,3.46901 -2.468139,7.13132 -3.702208,10.69698 -0.616543,2.93338 -1.370063,5.84128 -1.849628,8.80015 -0.374796,2.31245 -0.51412,4.6575 -0.709914,6.99193 -0.171948,2.05011 -0.330026,4.10305 -0.393116,6.15939 -0.09689,3.15788 0.184023,6.33412 0.226444,9.49157 0,0 3.475291,-1.82232 3.475291,-1.82232 z" />
    <path
       style="fill:none;stroke-width:0.264583"
       id="path6409"
       d="m 12.505097,140.16278 c -0.137367,-0.77181 -0.306218,-1.53868 -0.4121,-2.31543 -0.808037,-5.92779 -1.316904,-12.10592 -0.578289,-18.06495 1.06309,-8.57685 3.012868,-14.34242 5.331716,-22.692621 1.55908,-3.793217 2.845282,-7.710435 4.677238,-11.379655 3.641801,-7.294152 7.778227,-13.31826 13.69883,-18.941494 2.591324,-2.46117 5.345779,-4.833975 8.461922,-6.58382 4.270074,-2.397826 11.915018,-2.520717 16.293325,-2.937857 3.328635,0.974484 6.860627,1.419434 9.985907,2.923453 7.964834,3.833021 14.646634,10.400032 19.786761,17.434232 5.791067,7.925006 11.876833,20.309646 15.326843,29.464852 1.8231,4.83792 3.02538,9.88755 4.53807,14.83133 0.84872,4.44371 1.96515,8.84456 2.54616,13.33113 0.86623,6.68904 1.05023,13.90051 -0.41283,20.55782 -0.99779,4.54018 -3.10811,8.86276 -5.70563,12.68433 -0.93465,1.3751 -2.10794,2.57188 -3.16191,3.85782 -0.95271,0.73122 -1.66744,2.35047 -2.85814,2.19367 -0.867727,-0.11426 0.97977,-1.56849 0.96093,-2.44351 -0.0396,-1.84174 -0.94765,-3.57662 -1.129958,-5.40975 -0.983806,-9.89252 0.767708,-19.79702 2.140118,-29.54932 0.37719,-6.02228 2.58138,-11.75213 3.27915,-17.71763 0.39029,-3.33681 1.00005,-8.46114 -3.04721,-10.48104 -5.750462,-2.86994 -21.322395,-3.62724 -26.426429,-4.11422 -6.612507,-0.17666 -13.222931,-0.46959 -19.837522,-0.52999 -11.334654,-0.10349 -31.554251,0.28178 -43.076927,0.53869 -9.2769912,0.20684 -21.4363317,0.52006 -30.954211,0.9844 -2.999028,0.14631 -5.993147,0.38011 -8.989719,0.57016 -1.296717,1.63984 -4.863152,-0.28226 -6.642221,1.08438 -1.002909,0.77041 -1.740424,1.83531 -2.610639,2.75297 0,0 3.342376,-2.05409 3.342376,-2.05409 v 0 c -10.029156,4.43458 -2.200585,0.9449 -1.883122,0.87419 1.743557,-0.38834 3.531103,-0.5427 5.296654,-0.81405 3.10939,-0.27654 6.213951,-0.61416 9.328169,-0.82962 9.882698,-0.68376 21.811022,-1.13177 31.52751,-1.41162 13.495216,-0.38867 29.516563,-0.72222 42.974922,-0.47804 6.498627,0.11792 12.989428,0.50887 19.484141,0.76331 5.284698,0.58974 19.653925,1.44442 25.468776,4.43588 3.886202,1.99925 3.485252,6.75671 3.161382,10.11169 -0.57242,5.92984 -2.692001,11.64676 -3.033813,17.61284 -1.381422,9.75395 -3.28063,19.9749 -2.533883,29.86965 0.150656,1.9963 -0.558673,4.72294 1.051004,5.91325 2.713712,2.00671 6.550912,-1.86548 8.243432,-3.25381 1.00818,-1.28613 2.13538,-2.48727 3.02453,-3.85838 2.48776,-3.83622 4.49175,-8.16822 5.3834,-12.68 1.30973,-6.62734 0.96404,-13.83491 -10e-4,-20.44187 -0.65249,-4.46639 -1.81798,-8.84266 -2.72697,-13.264 -1.54764,-4.93548 -2.79997,-9.97347 -4.64294,-14.80644 C 103.84447,97.223801 97.342702,83.859501 91.963681,76.265491 86.899259,69.115635 80.380183,62.45847 72.427155,58.488185 c -3.113797,-1.554461 -6.652446,-2.047753 -9.978666,-3.071633 -3.162887,0.289108 -6.424517,0.03157 -9.488656,0.867321 -4.186521,1.14188 -8.248767,2.852819 -12.020198,4.999254 -5.68688,3.236574 -12.120385,10.046038 -15.837338,15.2434 -5.892363,8.239207 -6.97694,12.449137 -10.798302,21.77257 -2.207269,7.836083 -4.4712067,14.843323 -5.637399,22.917633 -0.8761301,6.06602 -0.4819155,12.31782 0.096374,18.39117 0.076702,0.80554 0.2039127,1.60547 0.3058691,2.40821 0,0 3.4363609,-1.85333 3.4363609,-1.85333 z" />
    <path
       style="fill:none;stroke-width:0.264583"
       id="path6411"
       d="m 23.78446,160.68715 c -0.05804,-1.94962 -0.09448,-2.98661 -0.121727,-5.14355 -0.07186,-5.6878 -0.157545,-7.53847 0.570452,-13.82381 1.116349,-9.63827 2.276408,-14.18264 4.258206,-23.91922 2.529287,-9.79909 4.087567,-16.83853 7.567298,-26.350895 1.430734,-3.911127 3.084375,-7.742002 4.845254,-11.516022 3.263698,-6.994961 5.223941,-11.048224 10.777042,-16.300103 1.878137,-1.776259 4.174577,-3.050066 6.261867,-4.575101 4.986473,-0.223866 8.021717,-0.613185 13.359413,0.754846 9.949482,2.550017 19.815257,9.741916 26.741403,17.104717 2.851122,3.030868 5.208962,6.49052 7.813442,9.735783 2.19196,4.015952 4.75632,7.850023 6.57587,12.047852 1.93839,4.471983 3.35121,9.164913 4.65453,13.861443 3.29728,11.88174 4.65129,24.15807 5.00709,36.44705 0.0802,2.77091 -0.004,5.54413 -0.006,8.3162 7.88405,-9.3373 -2.43667,8.24417 -0.80764,6.69519 5.16683,-4.91296 3.6005,-5.16698 5.32322,-12.54788 2.23023,-9.55534 3.10516,-11.85414 6.02426,-21.50015 1.95816,-5.80919 4.43591,-13.53666 6.82958,-19.30522 0.90038,-2.16983 1.81827,-4.34772 3.00714,-6.37391 0.75882,-1.29325 1.83587,-2.3722 2.79898,-3.52143 0.24837,-0.29636 -0.84384,0.6238 -0.65195,0.95951 0.40507,0.70871 1.33631,0.93789 2.00447,1.40684 1.98334,3.02678 3.09631,6.48949 3.83214,10.0089 0.2047,0.97903 0.87965,2.0632 0.45041,2.96662 -1.39324,2.93233 -4.33734,1.15522 -6.16412,0.63567 -7.43439,-0.0262 -14.86923,0.007 -22.30317,-0.0785 -53.523748,-0.61838 -27.608073,-0.86723 -89.662069,-1.1544 -31.1738437,-0.14426 -72.40739,0.077 -103.897891,0.46141 -13.671323,0.1669 -27.340835,0.4587 -41.01125,0.68806 -23.5578,0.37261 -47.11559,0.79686 -70.66689,1.47451 -6.78744,0.1953 -13.56255,0.40093 -20.33555,0.87422 -2.33656,0.25705 -2.80801,0.1908 -4.66362,2.74361 -0.17423,0.2397 0.58949,0.0611 0.88423,0.0917 0,0 3.18892,-2.2743 3.18892,-2.2743 v 0 c -2.22576,-0.1589 -0.58896,-0.20118 -4.43303,2.17336 -0.13656,0.0844 0.27444,-0.16649 0.41167,-0.24974 0.55922,-0.10367 1.11844,-0.20734 1.67767,-0.31101 7.09484,-0.81151 14.19796,-1.2405 21.33046,-1.62737 24.16452,-1.3107 48.35124,-2.1839 72.54149,-2.8478 40.612619,-0.68142 47.680101,-0.91431 90.448026,-1.10429 34.082362,-0.15141 71.778133,-0.20423 105.921609,0.65083 10.374016,0.2598 43.721775,1.83498 57.876515,2.48861 3.21784,-0.7843 6.53749,-1.23042 9.65352,-2.35289 1.00216,-0.361 2.08836,-1.02607 2.47839,-2.0173 0.36813,-0.93558 -0.29558,-1.99076 -0.51526,-2.97187 -0.80318,-3.58712 -1.94057,-7.12543 -3.87953,-10.27173 -0.73896,-0.56946 -1.29226,-1.832693 -2.21687,-1.708392 -6.54199,0.879492 -8.88041,7.402862 -10.90519,12.546552 -2.08436,5.29502 -4.88032,14.01784 -6.60257,19.2163 -3.643,11.75922 -3.30554,10.21081 -6.32758,21.66889 -0.71831,2.72348 -2.37084,5.39184 -2.07005,8.19234 0.11918,1.10964 1.97415,1.34915 3.08872,1.29205 2.15461,-0.11036 -6.21591,-11.27492 0.18586,-6.46964 -0.0655,-2.74307 -0.0609,-5.4887 -0.19658,-8.22919 -0.60738,-12.27138 -2.09766,-24.45072 -5.39619,-36.32116 -1.3104,-4.71577 -2.68509,-9.43992 -4.60018,-13.944149 -1.79701,-4.226515 -4.32993,-8.100764 -6.4949,-12.151148 -2.58783,-3.273314 -4.9279,-6.758774 -7.76352,-9.819947 -6.853141,-7.398269 -16.714024,-14.732683 -26.599431,-17.420955 -2.772953,-0.754086 -5.696257,-1.449216 -8.549532,-1.107554 -3.621447,0.433644 -6.938412,2.251702 -10.407618,3.377552 -2.039196,1.532316 -4.289094,2.818487 -6.117595,4.596942 -5.42521,5.276726 -7.269281,9.287634 -10.430883,16.244835 -1.713711,3.771069 -3.327741,7.593417 -4.732607,11.490097 -3.386167,9.392217 -5.075264,16.742887 -7.602564,26.397807 -2.06801,9.68708 -3.30208,14.54195 -4.637858,24.14464 -0.9579,6.88618 -0.870419,7.96739 -1.008732,14.07797 -0.129957,5.74146 -0.0091,1.36906 -0.121727,5.26759 0,0 3.512655,-1.78978 3.512655,-1.78978 z" />
    <path
       style="fill:none;stroke-width:0.264583"
       id="path6413"
       d="m 20.360377,145.36206 c -0.02827,-3.22149 -0.259871,-6.45723 -0.08473,-9.67811 0.232638,-4.27839 1.002445,-10.98601 1.794409,-15.0789 0.589578,-3.04696 1.424474,-6.04128 2.136711,-9.06192 0.910873,-2.94469 1.645933,-5.94963 2.732618,-8.83408 2.663629,-7.070201 6.883699,-15.186324 12.882189,-20.059065 4.934686,-4.008583 4.000963,-3.537881 8.281464,-2.604992 2.152967,0.896517 4.519856,1.393745 6.458897,2.689555 5.822987,3.891355 8.695377,8.774814 11.640881,15.066817 3.352527,7.161465 5.200565,14.102015 6.128517,21.947725 0.44405,3.75438 0.329459,7.55392 0.494188,11.33088 -0.733062,8.90371 -0.623337,11.363 -2.450062,19.83668 -0.931439,4.32071 -1.552954,7.88549 -4.426961,11.23423 -0.470471,0.54818 0.976508,-1.32611 0.781034,-2.02155 -0.416483,-1.48174 -1.632966,-2.6095 -2.449449,-3.91425 -2.534698,-6.40358 -2.207085,-5.19197 -4.232531,-11.89082 -0.560769,-1.85465 -0.968643,-3.75585 -1.591154,-5.59069 -0.472631,-1.39308 -1.595163,-5.37068 -3.841076,-5.86348 -1.148431,-0.25198 -2.314567,0.41515 -3.471851,0.62273 -6.747185,3.44325 -12.976887,7.77225 -19.245977,11.99481 -1.506934,1.015 -3.055953,1.96896 -4.531339,3.02929 -0.738859,0.53101 -2.583979,0.96642 -2.103783,1.73927 0.625923,1.00739 2.344956,0.35729 3.517436,0.53594 3.714271,-0.46578 7.430881,-0.91328 11.142816,-1.39732 23.169927,-3.02144 20.077334,-2.89599 45.923885,-5.58512 25.256871,-2.62778 50.567141,-4.6193 75.883421,-6.56069 12.86557,-0.83118 25.72113,-1.98722 38.61223,-2.38879 1.44259,-0.0449 6.48069,-0.18778 8.5384,0.14912 0.34905,0.0572 0.64009,0.30115 0.96014,0.45172 -2.66992,1.2868 1.61824,-0.67066 0.30338,-0.73759 -1.2772,-0.065 -2.45853,0.7146 -3.71056,0.97517 -2.20393,0.45866 -4.42171,0.85673 -6.64939,1.18086 -8.66096,1.26017 -12.4979,1.38318 -21.75337,2.11494 -6.10007,0.33772 -12.19672,0.74415 -18.3002,1.01316 -8.7972,0.38773 -17.59896,0.66575 -26.39988,0.95698 -38.275613,1.26658 -42.336467,1.33388 -81.700339,2.15497 -39.131526,0.81625 -41.257969,0.80654 -78.79317,1.40446 -19.927175,0.19075 -32.072323,0.86112 -51.171863,-0.71064 -4.783048,-0.39361 -9.636051,-0.67971 -14.26586,-1.94357 -3.083671,-0.8418 -9.557838,-3.84331 -8.690198,-8.70824 0.4631,-2.59664 2.554408,-4.61551 3.831612,-6.92327 2.390984,-2.65813 4.627356,-5.46394 7.172955,-7.9744 5.773118,-5.69342 14.146969,-12.40901 20.470529,-17.41382 8.065344,-6.383355 16.334478,-12.473185 24.70182,-18.45018 1.637535,-1.035662 3.275071,-2.071323 4.912606,-3.106981 0.128262,0.02138 0.256349,0.08448 0.384786,0.06417 0.745392,-0.117864 1.458968,-0.484685 2.21356,-0.475033 0.520179,0.0067 0.980485,0.348102 1.470729,0.522153 0,0 3.1839,-2.141617 3.1839,-2.141617 v 0 c -0.550127,-0.219829 -1.058495,-0.634312 -1.650381,-0.659485 -0.810249,-0.03446 -1.643128,0.156991 -2.38352,0.487916 -4.455086,1.991251 -7.163847,3.926919 -11.129295,6.494219 -8.177088,5.934964 -16.265007,11.97365 -24.178395,18.259458 -6.186522,4.91411 -15.036522,12.00843 -20.706831,17.55807 -2.620471,2.56471 -4.927071,5.4316 -7.390615,8.1474 -1.31661,2.43656 -3.53508,4.57137 -3.94983,7.30967 -0.7773,5.13189 6.679553,7.81678 9.639769,8.49539 4.848778,1.11155 9.87583,1.27418 14.84248,1.55451 18.969764,1.07072 32.840347,0.28854 52.370976,-0.15155 61.623669,-1.28597 12.699819,-0.28211 79.049614,-1.59147 14.205685,-0.28034 28.410371,-0.61453 42.616842,-0.85152 20.186379,-0.33675 43.222839,-0.43235 63.747069,-0.98619 5.95668,-0.16074 11.90896,-0.45615 17.86344,-0.68422 9.76449,-0.62502 12.31047,-0.61158 21.31161,-1.75047 0.98749,-0.12494 8.14879,-1.09126 10.06948,-1.84862 1.90447,-0.75097 3.76858,-1.64179 5.49721,-2.73853 0.30426,-0.19304 0.2675,-0.66918 0.40124,-1.00377 -0.39831,-0.15029 -0.77224,-0.4002 -1.19494,-0.45086 -2.04879,-0.24556 -7.70346,0.0768 -9.01169,0.15212 -13.23763,0.7626 -26.43386,2.12361 -39.6513,3.14709 -25.40743,2.18734 -50.81813,4.35879 -76.20346,6.79271 -40.444811,3.87781 -10.952718,1.12159 -44.731669,4.6979 -3.500216,0.37059 -7.007818,0.66775 -10.511727,1.00162 -1.010536,0.0693 -2.380977,0.98432 -3.031606,0.208 -0.526135,-0.62777 1.201886,-1.1189 1.863656,-1.60158 1.441561,-1.05143 2.959592,-1.99381 4.437139,-2.99406 1.769838,-1.19811 3.551926,-2.37849 5.305005,-3.601 0.964027,-0.67226 1.849463,-1.45805 2.845138,-2.08249 1.636437,-1.02628 3.35924,-1.90793 5.038857,-2.8619 1.07814,-0.28608 2.130134,-1.01564 3.234418,-0.85823 2.295535,0.32721 3.484094,4.14723 3.982349,5.52529 0.658204,1.82042 1.082755,3.71716 1.649945,5.56796 2.149879,7.0153 1.605486,5.24982 4.130384,12.03879 0.813207,1.44418 0.87114,3.79696 2.439617,4.33255 4.331287,1.47902 6.664774,-2.6587 7.690357,-5.54707 0.829199,-2.33528 1.319631,-4.782 1.801167,-7.21288 1.677549,-8.46856 1.572782,-10.91296 2.242042,-19.80193 -0.177837,-3.78579 -0.08335,-7.59423 -0.533513,-11.35736 -0.959596,-8.02172 -2.758747,-14.71854 -6.099821,-22.071902 -2.948588,-6.489539 -5.580737,-11.307289 -11.444171,-15.427222 -1.937842,-1.361623 -4.319341,-1.944293 -6.47901,-2.916439 -5.891234,1.797408 -9.457129,2.083412 -14.067483,5.942693 -5.89611,4.935572 -10.011193,13.059812 -12.633441,20.10694 -1.0758,2.89114 -1.809847,5.8982 -2.714771,8.84729 -0.74313,3.04567 -1.608025,6.06419 -2.22939,9.13701 -0.689511,3.40982 -1.771494,11.59827 -2.06866,15.26484 -0.265761,3.27909 -0.110395,6.58086 -0.266455,9.86455 0,0 3.500805,-1.78375 3.500805,-1.78375 z" />
    <path
       style="fill:none;stroke-width:0.264583"
       id="path6415"
       d="m 15.810732,182.00011 c -0.035,-1.25697 -0.109299,-3.24797 -0.0092,-4.32725 0.614233,-6.62061 2.231985,-13.11519 4.311195,-19.41305 0.957111,-2.89906 2.086323,-5.73843 3.129485,-8.60765 3.318107,-7.17482 5.611878,-12.62409 9.69147,-19.44255 4.110167,-6.86956 9.076737,-13.64925 14.236374,-19.75763 6.639867,-7.86078 9.068697,-9.80054 16.401174,-16.770566 5.737328,-4.790638 8.556789,-7.412032 14.581523,-11.502887 3.861044,-2.621685 4.303734,-3.857726 7.850159,-3.639355 1.534964,0.09452 3.196873,-0.170032 4.587991,0.485595 2.080178,0.98038 3.627501,2.827428 5.441254,4.241142 2.099067,2.750806 4.428603,5.34014 6.297203,8.25242 5.39654,8.410736 9.31495,17.221581 12.77876,26.590771 3.85937,10.43911 7.21006,22.3978 9.57116,33.26472 1.16606,5.36676 1.9618,10.80733 2.9427,16.211 1.77715,12.14342 2.79214,24.38502 3.19747,36.64735 0.0675,2.04223 0.0931,4.08615 0.0829,6.12946 -0.004,0.78269 -0.87083,2.58298 -0.12527,2.34475 1.50413,-0.48064 2.22024,-2.24594 3.33037,-3.36891 -0.49093,-8.39705 -0.59623,-16.81192 -0.7245,-25.22017 -0.0584,-3.82722 -0.0143,-7.6568 -0.15218,-11.48197 -0.13226,-3.67089 0.47076,-7.50457 -0.65788,-11.00015 -1.17842,-3.64976 -4.0354,-6.5233 -6.0531,-9.78495 -3.54496,-2.64774 -6.55427,-6.23271 -10.63489,-7.94322 -11.40122,-4.77915 -36.597296,-7.95866 -47.810282,-8.80821 -10.725554,-0.81263 -21.495906,-0.93483 -32.251475,-1.05995 -25.106949,-0.29205 -35.89495955,0.48913 -60.475157,1.54707 -18.47881,1.0502 -36.944523,2.45778 -55.335485,4.5612 -3.201874,0.3662 -10.503958,1.27089 -14.279777,2.00761 -0.826092,0.16119 -1.625428,0.43774 -2.438143,0.6566 -1.270188,0.82054 -2.945815,1.22111 -3.810561,2.46162 -0.33293,0.47759 1.020829,0.59667 1.588434,0.72609 0.888201,0.20252 1.812131,0.1932 2.720925,0.2565 1.932628,0.13461 4.476967,0.19772 6.415331,0.25955 0,0 2.991143,-2.15917 2.991143,-2.15917 v 0 c -2.265672,-0.067 -4.098279,-0.0944 -6.359205,-0.26867 -0.862951,-0.0665 -1.720376,-0.19312 -2.582523,-0.26935 -0.383461,-0.0339 -0.78726,-0.18025 -1.153256,-0.0609 -0.975764,0.31811 -1.847852,0.89369 -2.771777,1.34053 0.88071,-0.28814 1.740106,-0.65224 2.642137,-0.86444 3.817207,-0.89794 11.705722,-2.06102 14.895171,-2.49193 18.760646,-2.53461 37.631393,-4.19943 56.517291,-5.45075 9.625742,-0.47054 19.2439512,-1.13536 28.8772271,-1.41162 19.5706719,-0.56123 44.1291629,-0.66177 63.6639299,1.02944 12.00041,1.03892 34.776192,4.17005 46.663142,9.44825 3.99503,1.77392 6.95603,5.29545 10.43405,7.94318 1.98257,3.22669 4.78797,6.07492 5.9477,9.68008 1.12157,3.48649 0.56245,7.30533 0.6937,10.96542 0.1374,3.83166 0.0902,7.66776 0.11198,11.50181 0.0485,8.54885 0.0164,17.09842 -0.0878,25.64673 1.14983,-0.0364 2.51003,0.55489 3.4495,-0.10908 0.59668,-0.42169 -0.15494,-1.45334 -0.20764,-2.18209 -0.14413,-1.993 -0.2443,-3.98898 -0.38278,-5.98237 -0.84483,-12.16067 -1.91593,-24.31061 -3.81672,-36.36038 -1.00971,-5.39389 -1.85075,-10.8221 -3.02912,-16.18167 -2.39762,-10.90508 -5.70915,-22.83797 -9.47279,-33.35765 -3.40148,-9.50741 -7.118,-18.288829 -12.33467,-26.923271 -1.798,-2.975964 -4.0345,-5.663864 -6.051755,-8.495797 -1.788427,-1.508678 -3.277468,-3.469812 -5.365284,-4.526039 -4.326703,-2.188874 -9.140817,1.062424 -12.621398,2.848769 -1.978342,1.015346 -3.831786,2.264761 -5.661787,3.528033 -5.886116,4.063249 -8.690858,6.69127 -14.302732,11.430743 -7.308085,7.003262 -9.648258,8.884692 -16.287207,16.767432 -5.113599,6.07162 -10.246238,13.03954 -14.339075,19.85652 -3.821518,6.36506 -6.681364,12.85956 -9.838501,19.5562 -2.296303,6.22843 -4.002107,10.38714 -5.701484,16.75488 -0.556674,2.08592 -0.933396,4.2163 -1.342215,6.33615 -0.638232,3.30944 -1.158956,6.38782 -1.091887,9.73787 0,0 3.516605,-1.7918 3.516605,-1.7918 z" />
    <path
       style="fill:none;stroke-width:0.264583"
       id="path6417"
       d="m 19.876964,143.77816 c -0.610095,-4.9281 0.443228,-9.74339 1.563721,-14.52995 1.870341,-7.98977 3.132311,-11.88074 6.428316,-19.68816 1.532806,-3.63085 3.32522,-7.14654 4.98783,-10.719809 5.572064,-9.332568 6.927929,-12.19808 13.453176,-20.808939 2.386388,-3.149132 4.93935,-6.170737 7.519265,-9.163381 4.240043,-4.918358 8.990796,-9.888571 13.682435,-14.401151 1.830917,-1.761038 3.748524,-3.429667 5.622785,-5.1445 2.053563,-1.533324 6.362057,-5.656448 8.959262,-6.741552 0.911384,-0.380772 1.765036,-0.930799 2.724637,-1.164838 2.216888,-0.540677 3.018885,-0.0085 5.104262,0.599622 0.926023,0.725615 1.926413,1.365232 2.778072,2.176844 2.48684,2.369902 4.087294,4.821883 5.853946,7.80207 2.314729,3.904744 4.076869,7.654062 5.751559,11.891806 0.94142,2.382216 1.7235,4.82436 2.58525,7.236539 3.43948,10.483853 5.40698,21.369192 6.59784,32.319139 0.69252,6.36764 0.78864,9.19896 1.17635,15.57956 0.44039,11.40546 0.72354,22.83264 0.4187,34.24653 -0.0502,1.87825 -0.15831,3.75451 -0.23747,5.63177 -0.4825,7.30931 -0.76138,14.80202 -2.30146,21.98596 -0.30602,0.46972 -1.17012,0.90841 -0.91806,1.40916 0.21968,0.4364 1.70034,-0.86724 1.21392,-0.82143 -1.33052,0.12531 -2.55091,0.81991 -3.86352,1.07097 -2.3552,0.45048 -4.73522,0.77545 -7.11958,1.02979 -9.15031,0.97603 -13.659045,1.0141 -22.993262,1.41579 -9.152684,-0.25203 -14.958544,-0.18846 -23.984468,-1.2836 -6.140151,-0.74501 -13.640835,-2.23363 -19.669144,-3.87966 -6.530403,-1.78313 -8.589936,-2.76642 -14.684972,-5.15867 -4.735142,-2.13326 -9.339363,-4.60326 -13.49542,-7.73666 -0.9136936,-0.68886 -1.8144181,-1.4021 -2.6388563,-2.19562 -1.7181737,-1.65374 -2.0121443,-2.33941 -3.2360765,-4.25204 -0.29118019,-0.74515 -0.64222437,-1.4696 -0.87354064,-2.23545 -1.35416716,-4.48342 -1.05802989,-9.33168 -0.69938295,-13.92691 0.94398844,-6.65995 3.11414999,-13.09793 5.76718469,-19.26004 0.6411822,-1.48925 1.3418656,-2.95217 2.0127984,-4.42826 2.2744128,-4.53109 4.6262863,-9.05087 7.3003153,-13.36346 1.652707,-2.66543 3.70525,-5.88328 6.205029,-7.857503 1.815671,-1.433943 3.945992,-2.416728 5.918988,-3.625093 3.482604,-0.732464 6.933826,-1.634408 10.447808,-2.197396 25.856879,-4.142632 36.062819,-4.947727 64.026739,-6.581727 24.82292,-1.450465 49.59973,-2.061904 74.45999,-2.075982 10.03136,-0.0057 20.06074,0.281146 30.09111,0.421719 18.00611,0.524473 36.02509,1.225603 53.96643,2.909843 4.36234,0.409511 9.51276,0.994045 13.93267,1.790806 1.09641,0.197643 2.17469,0.485153 3.26205,0.727731 0.59254,0.207123 1.1851,0.414247 1.77766,0.621368 0,0 3.15116,-2.142161 3.15116,-2.142161 v 0 c -0.64027,-0.191556 -1.28056,-0.383112 -1.92082,-0.574668 -1.1501,-0.2077 -2.29323,-0.458472 -3.45028,-0.623104 -4.57713,-0.651264 -10.03509,-1.101331 -14.51542,-1.401799 -18.42643,-1.235758 -36.89878,-1.631572 -55.35959,-1.919994 -10.17613,-0.03536 -20.3525,-0.185254 -30.52838,-0.106082 -26.08369,0.20294 -48.40936,0.844097 -74.55298,2.141196 -12.791426,0.634637 -47.273645,2.291866 -62.216809,5.180668 -5.383088,1.040654 -10.440927,3.351041 -15.66139,5.02656 -2.013883,1.2584 -4.188,2.290855 -6.041649,3.775198 -2.489183,1.99327 -4.573667,5.26581 -6.218511,7.94707 -0.834086,1.35965 -1.5959972,2.76236 -2.3773686,4.15297 -2.801013,4.98497 -2.3043113,4.13857 -4.9021664,9.23827 -0.6754497,1.48344 -1.3803095,2.95384 -2.0263494,4.45033 -2.68223363,6.21313 -4.8983083,12.70239 -5.8477319,19.422 -0.3722833,4.63319 -0.671443,9.59538 0.7133092,14.11111 0.2418464,0.78867 0.6099091,1.53296 0.9148636,2.29945 1.26643797,1.90614 1.62354969,2.66369 3.3769686,4.30018 0.8496676,0.79301 1.7779171,1.50066 2.7188416,2.1829 4.2667988,3.09376 8.9721433,5.52716 13.7874433,7.6391 6.038328,2.2971 8.442835,3.38005 14.880955,5.07995 5.819629,1.53659 13.997204,3.09966 19.871714,3.79054 8.548737,1.00539 15.408899,1.02228 24.036067,1.2883 7.907983,-0.29286 14.771446,-0.44664 22.622271,-1.10677 1.185812,-0.0997 8.581922,-0.76825 10.700382,-1.70738 1.85255,-0.82125 3.61452,-1.87731 5.22582,-3.10617 0.4576,-0.349 0.55413,-1.00885 0.83119,-1.51327 0.48859,-2.67143 0.77723,-5.3377 1.03098,-8.04278 0.4319,-4.60428 0.78987,-9.21686 0.93313,-13.84044 0.43158,-13.26601 0.26429,-26.55535 -0.38357,-39.81195 -0.1606,-2.59057 -0.27902,-5.18409 -0.48178,-7.7717 -1.06625,-13.607578 -3.18034,-27.178102 -7.32786,-40.210464 -0.8485,-2.427859 -1.62348,-4.882676 -2.54551,-7.283571 -1.81035,-4.71397 -3.18598,-7.700775 -5.65048,-12.012623 -1.902121,-3.327892 -3.114465,-5.365832 -5.744831,-8.001045 -0.856557,-0.858136 -1.853827,-1.563224 -2.780742,-2.344835 -2.072431,-0.66979 -3.039541,-1.289344 -5.285481,-0.789594 -0.993158,0.220991 -1.913482,0.709094 -2.813584,1.183455 -2.175711,1.146612 -4.317283,2.363089 -6.399469,3.67188 -3.036395,1.908574 -5.65871,4.291216 -8.399626,6.584944 -1.82354,1.699046 -3.688276,3.354927 -5.470623,5.097137 -4.674711,4.569436 -9.185902,9.356339 -13.431446,14.326304 -2.562426,2.999652 -5.108583,6.019046 -7.48153,9.17072 -6.318435,8.391945 -8.022804,11.790926 -13.462143,20.866532 -3.841058,8.2333 -6.29006,12.87535 -9.191215,21.46617 -1.014293,3.0035 -1.759301,6.09249 -2.538707,9.16533 -1.249718,4.92706 -2.505592,9.83216 -2.13723,14.94923 0,0 3.475291,-1.82233 3.475291,-1.82233 z" />
    <path
       style="fill:none;stroke-width:0.264583"
       id="path6419"
       d="m 27.196695,155.61653 c -0.210013,-3.74087 0.455221,-7.48147 1.295765,-11.11145 0.582663,-2.51629 1.206892,-5.02722 1.986328,-7.48968 0.982649,-3.10446 2.013339,-6.20291 3.295237,-9.19624 1.602065,-3.74094 3.562649,-7.31797 5.343975,-10.97696 6.457013,-9.75988 9.274886,-14.70403 16.968488,-23.584834 3.011069,-3.475707 6.259057,-6.746425 9.583462,-9.923753 5.873716,-5.613853 10.893171,-9.721665 17.811401,-13.85719 1.59761,-0.955005 3.382938,-1.553472 5.074409,-2.330209 2.495936,-0.407802 4.958818,-1.237427 7.487812,-1.223404 11.649988,0.0646 20.812878,9.307155 26.772998,18.334831 1.89087,2.864064 3.36531,5.982282 5.04797,8.973423 1.3388,3.287697 2.87137,6.502993 4.0164,9.863086 3.6033,10.5739 5.33144,21.65812 5.93024,32.78305 0.43424,8.06771 0.11959,10.97104 -0.2391,18.80634 -0.43147,4.6023 -0.70266,8.52927 -1.44956,13.04091 -0.18903,1.14189 -1.63842,2.65725 -0.74386,3.39169 0.83059,0.68191 2.15093,-0.87078 2.66475,-1.81464 0.43404,-0.7973 -0.18928,-1.80839 -0.19826,-2.71613 -0.0203,-2.05566 0.0736,-4.11086 0.11041,-6.16629 0.87263,-8.48652 0.88234,-10.67021 2.78879,-19.45668 3.05434,-14.07682 7.87888,-27.69142 12.24223,-41.392282 0.0338,-1.990839 1.3392,-4.412898 0.10139,-5.972519 -4.55477,-5.738952 -24.13274,-3.596201 -26.02592,-3.542535 -7.69695,0.218191 -15.38306,0.768681 -23.05913,1.375831 -17.522335,1.385953 -31.890358,3.209715 -49.281235,5.22974 -16.520771,2.066923 -33.03509,4.219245 -49.482136,6.817785 -4.67434514,0.73851 -10.4153448,1.7031 -15.1742204,2.68378 -1.3342366,0.27495 -2.6553036,0.61033 -3.9829556,0.9155 0,0 -2.854717,2.17978 -2.854717,2.17978 v 0 c 1.382582,-0.35269 2.756789,-0.74001 4.147746,-1.05808 4.8906518,-1.11833 10.8557931,-2.23182 15.66429,-3.06915 16.720319,-2.91159 33.529624,-5.287376 50.357037,-7.483068 18.85316,-2.245725 30.11085,-3.804986 49.183441,-5.170736 7.5469,-0.54042 15.10562,-1.029719 22.6714,-1.112605 1.247,-0.01365 20.62477,-1.346247 24.78276,3.788855 1.21163,1.496353 0.0511,3.850431 0.0767,5.775644 -0.79682,2.66091 -1.57342,5.32796 -2.39045,7.98273 -1.02064,3.31632 -2.11372,6.61016 -3.12245,9.93012 -2.07497,6.82923 -4.91834,16.47769 -6.49518,23.40724 -1.97172,8.66488 -2.11272,11.28623 -3.17277,19.69774 -0.12154,2.11622 -0.36644,4.22896 -0.36463,6.34867 0.001,1.15294 -0.73245,3.11108 0.37298,3.43866 1.38955,0.41177 2.85287,-1.07291 3.73813,-2.2204 0.68348,-0.88593 0.38988,-2.20452 0.53186,-3.31442 0.64863,-5.07058 0.76437,-7.61247 1.17079,-12.93166 0.25387,-7.78384 0.51775,-10.7389 0.0366,-18.74675 -0.66884,-11.13189 -2.38331,-22.27076 -5.9523,-32.86998 -1.13717,-3.377191 -2.66984,-6.60805 -4.00475,-9.912074 -1.67085,-3.015062 -3.13662,-6.153253 -5.01253,-9.045186 -5.92774,-9.138293 -15.05082,-18.580251 -26.801495,-18.724168 -2.571917,-0.0315 -5.081286,0.802193 -7.621929,1.203291 -8.410289,4.39684 -11.526412,5.495943 -18.831475,11.256078 -3.134125,2.471296 -6.103393,5.153988 -8.974106,7.926901 -3.292766,3.180585 -6.512306,6.4497 -9.500343,9.918142 -7.478713,8.681106 -10.776871,14.222236 -17.148175,23.723926 -1.849747,3.702 -3.877588,7.32024 -5.549244,11.106 -1.336693,3.02718 -2.419318,6.16363 -3.463044,9.30389 -0.83013,2.49761 -1.507986,5.04492 -2.154079,7.59634 -0.943787,3.72701 -1.710186,7.53729 -1.706531,11.39686 0,0 3.500806,-1.78376 3.500806,-1.78376 z" />
    <path
       style="fill:none;stroke-width:0.264583"
       id="path6421"
       d="m 48.137989,137.28598 c -0.174955,-0.21554 -0.376943,-0.41172 -0.524867,-0.64664 -1.692193,-2.68742 -2.968731,-5.64618 -3.8536,-8.69136 -0.531162,-1.82792 -1.067925,-3.6662 -1.350225,-5.54869 -0.353076,-2.35447 -0.366506,-4.74747 -0.549759,-7.1212 0.624398,-3.11189 0.746937,-6.3683 1.873197,-9.33567 C 47.642488,95.641347 54.084357,87.745688 61.703238,79.827177 71.494369,69.650985 84.92406,58.732131 96.526354,50.808289 c 6.089816,-4.15907 12.590416,-7.682212 18.885626,-11.523316 5.15301,-2.48344 10.07241,-5.525426 15.45905,-7.450317 7.08477,-2.531711 20.76816,-5.4745 28.73029,-3.281487 4.14882,1.142714 8.02542,3.509092 11.20992,6.403488 9.5793,8.706644 10.24544,16.056096 14.32891,27.984323 0.73778,6.357662 2.07714,12.674107 2.21335,19.072986 0.30796,14.466475 -2.05362,26.571364 -5.68362,40.481694 -2.75055,10.54024 -6.76594,21.62223 -11.03783,31.68489 -1.55807,3.67012 -3.37403,7.22534 -5.06105,10.838 -0.95298,1.58676 -5.13216,10.0514 -8.3873,11.12455 -0.74084,0.24424 0.0138,-1.61736 -0.33225,-2.31649 -0.73911,-1.49346 -2.1678,-2.58735 -2.84757,-4.10874 -2.68922,-6.01877 -2.5368,-10.17164 -3.26146,-16.802 -0.0289,-10.75228 2.07902,-21.27056 4.39857,-31.70815 0.46817,-2.10669 3.75446,-10.43916 0.31069,-13.14599 -2.41121,-1.89523 -5.86228,-1.8047 -8.79343,-2.70706 -4.89589,-0.17031 -9.79038,-0.63448 -14.68768,-0.51095 -12.60872,0.31804 -48.24693,3.21487 -59.008555,4.06585 -29.162607,2.30606 -58.314576,4.75445 -87.467515,7.17914 -18.744597,1.68431 -12.143735,0.98907 -27.011813,2.61241 -0.409699,0.0447 -1.535721,-0.12865 -1.227833,0.14532 4.207568,3.74409 10.717059,0.73068 15.191782,0.20224 5.037954,-0.59496 10.076437,-1.18542 15.114656,-1.77813 21.5092982,-2.54305 43.067274,-4.63555 64.632564,-6.63515 0,0 2.054582,-1.52282 2.054582,-1.52282 v 0 c -21.562922,2.11607 -43.122234,4.27252 -64.658324,6.64898 -4.952798,0.5298 -9.902907,1.08537 -14.858394,1.58939 -3.840032,0.39057 -7.733564,0.38521 -11.527702,1.09437 -3.081541,0.57597 -5.982309,1.87913 -8.996196,2.74176 -0.646813,0.18513 1.22745,-0.59186 1.890157,-0.70789 7.348138,-1.28651 21.931477,-2.74709 28.105695,-3.43502 29.346851,-2.7792 58.69936,-5.50255 88.101034,-7.64983 15.179222,-1.10858 41.461652,-2.97696 57.564692,-3.03809 4.74222,-0.018 9.47103,0.50557 14.20654,0.75835 2.77831,0.86969 6.03458,0.82475 8.33492,2.60907 3.4866,2.70448 0.45363,10.56013 -0.0128,12.81159 -2.17281,10.48811 -4.22708,21.03486 -4.36197,31.79392 0.60281,6.54542 0.44545,11.1195 2.94975,17.15775 0.67489,1.62728 1.20737,3.85214 2.86847,4.43888 2.08782,0.73748 4.54627,-0.1678 6.54891,-1.1124 3.22295,-1.52019 6.59575,-8.93181 7.75497,-10.97667 1.58667,-3.57246 3.29218,-7.09448 4.76003,-10.71739 4.08155,-10.07402 7.87522,-20.9953 10.55578,-31.49532 3.57678,-14.01062 5.97406,-26.038262 5.75824,-40.593782 -0.0955,-6.439058 -1.37288,-12.80615 -2.05932,-19.209226 -3.90921,-11.921545 -4.56541,-19.594621 -14.06969,-28.353993 -3.19829,-2.94762 -7.11933,-5.35682 -11.31745,-6.494055 -7.84428,-2.124945 -22.37666,0.908674 -29.24739,3.529579 -6.56666,2.504911 -12.56599,6.299078 -18.84898,9.448617 -6.2558,3.831984 -12.7129,7.353221 -18.767399,11.495947 -11.640399,7.964821 -25.339982,19.085319 -35.225334,29.231923 -7.870534,8.078539 -14.565045,16.078314 -18.718675,26.59659 -1.192181,3.01898 -1.364292,6.34671 -2.046438,9.52006 0.149868,2.41157 0.132966,4.83933 0.449598,7.23472 0.252402,1.90946 0.759172,3.779 1.25235,5.64086 0.905605,3.41888 1.259856,4.08662 2.627831,6.96847 0.319093,0.67221 0.62516,1.35193 0.984922,2.00328 0.136782,0.24764 0.333499,0.45708 0.500248,0.68561 0,0 3.391471,-2.04265 3.391471,-2.04265 z" />
    <path
       style="fill:none;stroke-width:0.264583"
       id="path6423"
       d="m 16.497254,132.50221 c -0.127456,-5.64936 -0.253853,-6.88574 0.289276,-13.64879 0.307577,-3.82995 0.520998,-7.6874 1.261996,-11.45755 1.830573,-9.313851 4.831834,-17.886234 9.460023,-26.199482 2.22582,-3.998063 5.126215,-7.581365 7.689323,-11.372048 4.054356,-3.88973 9.399659,-11.222149 16.297055,-11.366863 3.94226,-0.08271 7.909984,0.989362 11.573214,2.448471 8.307824,3.309101 17.063508,10.530215 22.798947,17.1334 3.746476,4.313301 6.642828,9.297064 9.96424,13.945595 2.738781,5.04758 5.803952,9.931277 8.216342,15.142737 4.88679,10.55688 8.01817,20.90375 10.78504,32.15048 1.97961,8.04667 3.47645,16.72454 4.53446,24.97401 0.33547,2.61571 0.51041,5.24951 0.76562,7.87426 0.002,1.33786 -1.23495,3.51555 0.007,4.01356 1.28846,0.51675 2.62829,-1.46133 3.11879,-2.76002 0.50557,-1.3386 -0.41454,-2.83746 -0.46459,-4.26748 -0.096,-2.74241 -0.0506,-5.48923 0.0271,-8.23222 0.24729,-8.72422 0.66474,-12.09637 1.41524,-20.9343 0.3238,-6.25953 1.58525,-12.42835 2.05538,-18.67241 0.2262,-3.0043 1.08747,-9.04599 -1.97422,-11.62644 -5.05917,-4.26395 -16.46003,-3.94339 -21.37355,-4.41819 -6.99552,-0.0546 -13.991114,-0.22801 -20.986549,-0.16388 -14.978769,0.13731 -38.538121,1.00842 -53.31819,1.53759 -20.6454765,0.73917 -41.287563,1.56618 -61.928837,2.41302 -4.331282,0.17455 -12.538665,0.49575 -17.429374,0.72021 -1.047528,0.0481 -2.095045,0.0982 -3.141625,0.16373 -0.282623,0.0177 -0.620895,-0.0871 -0.845185,0.0858 -3.702027,2.85322 -3.033139,2.39687 -0.446035,2.4445 2.863538,0.0302 5.734407,-0.0602 8.586359,0.26397 1.563817,0.17773 1.877674,0.28095 3.361981,0.59983 0,0 3.155886,-2.19227 3.155886,-2.19227 v 0 c -1.442463,-0.31058 -1.907198,-0.44435 -3.417186,-0.62117 -2.854592,-0.33427 -5.727819,-0.22563 -8.594119,-0.28462 -3.061803,-0.11262 -1.977612,-0.39226 -5.766565,2.14372 -0.287454,0.1924 0.663954,-0.2042 1.006407,-0.25292 1.134274,-0.16136 2.275011,-0.27733 3.416429,-0.37629 4.888929,-0.42383 13.948796,-0.98287 18.157899,-1.25918 20.930865,-1.20415 41.8651148,-2.30906 62.817964,-3.06849 15.385074,-0.55764 37.22416,-1.22972 52.781448,-1.15705 6.814979,0.0318 13.625507,0.35406 20.438262,0.53109 4.58905,0.55475 15.69446,0.59978 20.48563,4.60756 3.05225,2.55319 2.35543,8.24916 2.17972,11.31546 -0.35595,6.21183 -1.5315,12.35961 -1.84583,18.57455 -0.95088,10.46676 -1.08431,10.82591 -1.6338,21.06631 -0.15085,2.8112 -0.32129,5.62321 -0.35574,8.43825 -0.0182,1.48844 -0.85546,3.40951 0.1979,4.46129 0.85121,0.84994 2.84887,0.25337 3.5328,-0.73618 0.73446,-1.06264 -0.23795,-2.57253 -0.35693,-3.8588 -0.3555,-2.57694 -0.65762,-5.16181 -1.0665,-7.73082 -1.35763,-8.52991 -2.81893,-16.34206 -4.99079,-24.76365 -1.3658,-5.29602 -2.7805,-10.5884 -4.5336,-15.76912 -1.87764,-5.54878 -3.89214,-11.06876 -6.34769,-16.3871 -2.41114,-5.22216 -5.48193,-10.113697 -8.222895,-15.170546 -3.274449,-4.695933 -6.118561,-9.72336 -9.82335,-14.087802 C 82.3734,70.073763 73.631152,62.704249 65.403491,59.285441 61.741642,57.763846 57.740846,56.119474 53.808087,56.627217 c -9.632894,1.243666 -14.795084,8.159279 -21.049136,14.263044 -2.540074,3.79648 -5.408649,7.39267 -7.620219,11.389442 -4.587516,8.290605 -7.722537,17.131411 -9.661223,26.388307 -0.797052,3.8058 -1.043382,7.70741 -1.458809,11.57351 -0.854959,7.95656 -0.752813,7.67113 -0.891905,13.97803 0,0 3.370467,-1.71734 3.370467,-1.71734 z" />
    <path
       style="fill:none;stroke-width:0.264583"
       id="path6425"
       d="m 8.8221438,160.61316 c 1.7828882,-4.72155 2.7401172,-9.72205 3.4768922,-14.69819 0.874706,-5.90771 1.533939,-12.55658 2.175726,-18.47141 0.991573,-8.7418 1.472593,-14.36592 3.125629,-23.09601 0.761079,-4.01945 1.568726,-8.038683 2.668148,-11.979041 2.043686,-7.32463 4.877077,-15.57615 9.733216,-21.640104 2.607302,-3.255785 6.105646,-5.684514 9.15847,-8.526772 12.854339,-4.46483 19.092364,-7.427838 33.616322,-8.421118 23.511597,-1.607937 48.661093,3.851632 70.123593,13.298953 6.55107,2.883638 12.59384,6.806091 18.89076,10.209138 10.51273,8.598072 18.63747,12.658169 23.42384,26.050534 3.84201,10.75005 1.8925,22.22832 -1.48939,32.65628 -1.69557,5.22824 -4.19183,10.17846 -6.73855,15.04915 -2.27855,4.35781 -5.13826,8.38616 -7.70739,12.57923 -5.24799,7.02413 -6.73796,10.25634 -13.24145,15.24955 -0.33115,0.25424 -0.98826,0.35924 -1.25196,0.0356 -2.63739,-3.23694 -1.56919,-7.72209 -0.80446,-11.34655 0.80064,-3.79467 2.19673,-7.43886 3.2951,-11.15829 5.77401,-13.59954 4.93618,-12.26028 11.56354,-25.36636 1.82075,-3.60067 3.76873,-7.13563 5.63161,-10.71469 1.46305,-2.81086 2.96401,-5.60332 4.34608,-8.45488 0.99079,-2.04426 2.64772,-3.95848 2.76978,-6.22691 0.0774,-1.43857 -1.49048,-2.46586 -2.23571,-3.69879 -4.00718,-0.34099 -8.00013,-1.06888 -12.02152,-1.02297 -12.20458,0.13934 -55.13848,3.83781 -62.85452,4.45792 -43.449501,3.49185 -86.884644,7.13124 -130.315544,10.84629 -24.301117,2.11225 -48.640722,3.78895 -72.932263,6.01591 -3.045313,0.27918 -6.092593,0.55085 -9.126653,0.93346 -0.92071,0.11611 -2.0471,-0.0704 -2.72684,0.56133 -0.68268,0.63452 -0.51287,1.79211 -0.76931,2.68816 1.97478,0.071 3.94876,0.16962 5.92434,0.21302 3.00419,0.066 13.393228,0.13654 16.335249,0.1553 6.301515,0.0402 12.603051,0.0613 18.904672,0.0732 1.370367,0.0159 2.740734,0.0319 4.111101,0.0478 0,0 2.909152,-2.11158 2.909152,-2.11158 v 0 c -1.398518,0.003 -2.797037,0.006 -4.195553,0.01 -11.75113,0.12413 -23.529544,0.3176 -35.274541,-0.18033 -1.87337,-0.0794 -3.7424,-0.24042 -5.6136,-0.36063 -1.75659,0.57209 -3.53061,1.09322 -5.26978,1.71626 -1.04959,0.37599 2.10253,-0.77572 3.19954,-0.97462 3.21068,-0.58214 6.45426,-0.97155 9.69371,-1.3631 24.863433,-3.00517 49.849511,-4.90503 74.766458,-7.3762 23.8210279,-2.03764 62.0016,-5.32994 85.252215,-7.20341 14.942952,-1.20405 29.885282,-2.42253 44.839467,-3.47794 11.45192,-0.80823 46.26725,-3.19457 60.81344,-3.01145 3.76947,0.0475 7.49858,0.78482 11.24787,1.17724 0.76626,1.09393 2.3329,1.94663 2.29878,3.2818 -0.0563,2.20178 -1.61733,4.0998 -2.53853,6.10039 -1.29721,2.81715 -2.71632,5.57677 -4.11342,8.34574 -1.7978,3.56311 -3.69007,7.07825 -5.47094,10.64985 -6.61181,13.2602 -5.73721,11.74346 -11.7257,25.48894 -1.68222,5.32403 -5.02875,13.46987 -4.58152,19.61174 0.10433,1.43286 0.43819,3.81504 1.87331,3.88156 2.61068,0.12102 4.89386,-1.96503 7.03139,-3.46878 5.08514,-3.5774 9.20244,-10.38999 12.6041,-15.06201 2.51135,-4.1785 5.30215,-8.20131 7.53406,-12.53553 4.92952,-9.57277 9.68773,-20.59975 10.16084,-31.60062 0.23533,-5.47209 -0.17668,-11.15924 -2.06255,-16.30149 C 182.36659,88.807411 173.96526,84.687734 163.37996,76.249381 157.01906,72.878012 150.90101,69.001957 144.29728,66.135273 129.82512,59.852893 113.40611,55.292664 97.74276,53.412815 90.017654,52.485681 82.184337,52.085033 74.417324,52.543648 c -17.224079,1.017019 -22.116912,4.432629 -37.823783,10.71109 -3.063584,2.877474 -6.576864,5.34107 -9.190754,8.632418 -4.831063,6.083165 -7.62579,14.373114 -9.657488,21.698082 -1.095594,3.949993 -1.903766,7.976932 -2.676515,12.002552 -1.616759,8.42249 -2.273862,14.75905 -3.329228,23.21124 -0.782497,6.7805 -1.268382,11.88057 -2.4279661,18.56786 -0.8754909,5.04893 -2.0013499,10.17526 -4.0976589,14.87875 0,0 3.6082128,-1.63247 3.6082128,-1.63247 z" />
    <ellipse
       style="fill:#000000;stroke-width:0.28323"
       id="path6737"
       cx="105.39322"
       cy="125.71227"
       rx="50.702682"
       ry="48.613811" />
    <path
       style="fill:#fa9f42;stroke-width:1.43545;fill-opacity:1;filter:url(#filter13415)"
       d="m 383.98212,657.25257 c -45.73346,-3.01814 -87.4152,-21.63468 -120.6888,-53.90387 -35.11049,-34.05063 -53.1251,-73.46086 -55.32725,-121.03845 -3.27869,-70.83603 36.56213,-136.14562 103.54785,-169.74223 44.48885,-22.31333 100.80503,-26.24074 148.3141,-10.34322 65.1539,21.80186 111.8978,73.26111 126.03616,138.75021 3.21012,14.86932 3.59011,50.27786 0.69777,65.02012 -18.40033,93.78659 -104.07761,157.75804 -202.57983,151.25744 z"
       id="path7331"
       transform="scale(0.26458333)" />
  </g>
  <g
     inkscape:groupmode="layer"
     id="layer3"
     inkscape:label="Layer 3">
    <g
       id="g13141"
       transform="matrix(0.66860677,0,0,0.6816561,199.59715,67.631843)"
       style="mix-blend-mode:multiply;filter:url(#filter13185)">
      <path
         style="fill:#2b4162;fill-opacity:1;stroke-width:0.264583"
         id="path11082"
         d="m -161.00899,88.191273 c 2.16394,-11.54053 4.47126,-15.099613 8.05024,-26.261103 2.67953,-7.708329 5.40441,-15.421399 8.90004,-22.805979 1.19951,-2.53399 1.56845,-3.14237 2.83397,-5.46652 0.73666,-1.26447 1.15389,-2.05582 1.9704,-3.21162 0.22941,-0.32475 0.44128,-0.67097 0.73334,-0.94077 0.20918,-0.19322 1.02723,-0.42008 0.74248,-0.42251 -5.16516,-0.0441 -4.47077,-0.2324 -2.24047,2.14377 0.90549,1.56732 1.8733,3.10026 2.71649,4.70196 1.95774,3.71889 5.63616,11.79733 7.11846,15.16463 4.23313,9.6163 8.07929,19.383589 11.86902,29.180159 2.68186,7.07113 5.22395,14.1931 7.69849,21.33888 0.47752,1.37895 0.88152,2.7853 1.42755,4.13859 0.25856,0.6408 0.29456,1.73567 0.9795,1.82701 1.86588,0.2488 3.71065,-0.63615 5.56597,-0.95421 0.15002,-1.33536 0.35252,-2.66586 0.45007,-4.00607 0.25654,-3.52465 0.48521,-11.926 0.5712,-14.93926 0.2849,-9.98365 0.58675,-19.96519 0.92033,-29.947409 0.0918,-4.69615 0.39277,-9.38539 0.51874,-14.08034 0.0414,-1.54147 0.10453,-3.08455 0.0546,-4.62577 -0.0323,-0.99623 0.704492,-2.838099 -0.30073,-2.97509 -2.1674,-0.295371 -4.65967,1.802353 -0.5095,1.092892 2.224235,-0.380227 -2.93227,-2.293912 -5.18839,-2.258122 0,0 -4.6995,1.19742 -6.04022,1.92796 -5.3133,2.89513 -6.21108,3.60561 -11.84134,6.60124 -4.01026,2.13371 -11.27035,5.78105 -15.39599,7.68298 -2.66925,1.23054 -5.38464,2.35844 -8.07696,3.53766 -11.73437,4.90297 -23.93822,8.493159 -36.01693,12.413359 -0.75112,0.26682 -4.5596,2.14529 -3.8405,1.50048 0.23884,-0.214162 -0.4794,0.42987 -0.7191,0.64481 l 4.87399,0.41882 v 0 c 0.20675,-0.17161 0.38744,-0.38065 0.62024,-0.51482 0.92213,-0.53145 2.75108,-1.15462 3.6138,-1.47836 11.82838,-4.061 23.81502,-7.696599 35.36478,-12.531069 2.70221,-1.18329 5.42828,-2.31352 8.10663,-3.54987 3.04955,-1.4077 12.5842,-6.15541 15.53245,-7.68734 4.08979,-2.12508 8.05173,-3.659451 12.18103,-5.706711 1.42524,-0.70662 2.90587,-2.131319 4.3588,-2.779109 -0.90689,-0.16001 -1.88109,-0.85837 -2.72068,-0.48003 -0.49317,0.22223 -0.33483,0.72179 -0.14406,1.22796 0.34789,0.92304 0.91218,1.93367 0.99604,2.91652 0.13078,1.53258 0.83665,3.07421 0.85139,4.61228 0.0263,2.74207 -0.11081,11.84899 -0.13988,14.07902 -0.21649,9.986759 -0.46334,19.963739 -1.00879,29.939369 -0.17629,3.22428 -0.64508,11.22321 -1.14156,14.88768 -0.17135,1.26476 -0.51037,2.50111 -0.76556,3.75166 1.33565,0.33734 2.45297,0.83135 3.78731,0.48879 0.68726,-0.17644 -0.72314,-0.55852 -1.03707,-1.19484 -0.65463,-1.32696 -1.09419,-2.7496 -1.62812,-4.12955 -2.74907,-7.10508 -5.41252,-14.2435 -8.21163,-21.32932 -3.84093,-9.77254 -7.75659,-19.505519 -11.79505,-29.198309 -2.81407,-6.7541 -5.58947,-13.53398 -8.96537,-20.03451 -0.49769,-0.67587 -0.69205,-1.7769 -1.49307,-2.02761 -1.85486,-0.58054 -3.88363,-0.35872 -5.82485,-0.26277 -0.30863,0.0152 -0.51208,0.35593 -0.71816,0.58618 -1.06023,1.18457 -1.69126,2.91422 -2.52298,4.23534 -1.19994,2.3796 -1.50627,2.9126 -2.63561,5.50837 -3.24218,7.45208 -5.75478,15.18956 -8.39723,22.866049 -3.90487,12.07781 -4.93564,15.729304 -7.75995,28.113264 l 3.6724,-1.728691 c -0.80862,-0.416819 -0.2204,-0.154438 0,0 z"
         sodipodi:nodetypes="ccscssscsscssscsscsssscsssccsccssccssscsssscsscssscscscscscccc" />
      <path
         id="path11084"
         style="fill:#721817;fill-opacity:1;stroke-width:0.264583"
         d="m -163.49536,62.20971 c -2.07162,0.0142 -4.14165,0.13915 -6.14485,0.61081 -1.29681,0.44027 -2.69387,0.96471 -3.05872,2.4288 -0.22453,1.19052 -0.24025,2.39349 -0.21705,3.60236 0.0198,1.75002 0.0472,3.50015 0.0501,5.25033 -0.004,3.71425 -0.0289,7.4288 -0.14831,11.14143 -0.15233,3.9149 -0.25557,7.83097 -0.44493,11.74399 -0.31659,4.4036 -0.87249,8.77861 -1.55546,13.14028 -0.20285,1.41551 -0.44078,2.82611 -0.6165,4.24524 -0.28677,2.31594 -0.42177,4.65093 -0.68471,6.9696 -0.12432,1.62847 -0.23125,3.25801 -0.33384,4.88756 -0.89772,-6.58894 -1.79044,-13.17841 -2.63498,-19.77452 -0.98645,-8.27717 -2.06331,-16.5448 -2.85512,-24.84397 -0.0965,-1.17897 -0.2175,-2.35653 -0.28939,-3.53725 -0.20943,-3.43973 -0.82012,-5.02121 -0.75512,-8.46267 l -4.87399,-0.41882 c 0.13526,3.4494 0.71825,5.45866 0.9934,8.90268 0.0952,1.18804 0.23984,2.37161 0.35967,3.55741 0.93526,8.29241 1.88669,16.58282 2.96519,24.85791 1.11606,8.05032 2.09996,16.11778 3.07423,24.18614 0.29401,2.14132 0.41953,4.3024 0.72295,6.4425 0.0696,0.49085 0.13959,0.96015 0.25735,1.41438 -0.34648,0.0479 -0.96707,0.50998 0.0884,0.30696 v 0 c 0.0916,0.28683 0.20675,0.56801 0.36225,0.84491 1.72755,0.0666 3.45647,0.29607 5.18263,0.19999 0.19135,-0.0107 0.19222,-0.33223 0.2775,-0.50385 0.0528,-0.10627 0.10043,-0.21398 0.1447,-0.32246 0.24403,-0.0335 0.48756,-0.0708 0.73174,-0.10335 2.55447,-0.32115 5.12539,-0.70485 7.54785,-1.61334 2.54657,-1.1233 4.99849,-2.44781 6.93498,-4.49327 1.90016,-1.8137 3.78326,-3.69198 5.24516,-5.88646 1.22949,-2.15237 2.08664,-4.51233 2.93574,-6.83472 0.57431,-2.35178 0.91562,-4.73484 0.66249,-7.16287 -0.13956,-2.142 -0.26043,-4.32831 -0.93948,-6.37999 -0.65268,-1.58475 -1.47379,-3.02327 -2.89801,-4.04162 -0.26956,-0.17691 -0.52729,-0.37247 -0.80822,-0.53071 -0.85775,-0.48314 -1.77719,-0.79064 -2.72748,-0.98909 2.06875,-0.56443 4.08218,-1.31451 5.99808,-2.32027 0.47348,-0.28942 0.96662,-0.54956 1.42059,-0.86868 2.08843,-1.46808 3.65768,-3.61814 5.12475,-5.66322 0.53181,-0.9393 0.95318,-1.55719 1.26555,-2.59829 0.35086,-1.16938 0.12959,-2.40314 0.13591,-3.5972 -0.0813,-1.78009 -0.2147,-3.55585 -0.31987,-5.33456 -0.0185,-1.6122 -0.0548,-3.2277 -0.2527,-4.82968 -0.20897,-1.34422 -0.47389,-2.68413 -0.8506,-3.992 -0.43924,-1.47796 -1.17406,-2.82127 -2.17971,-3.99614 -1.55784,-1.60085 -3.2939,-3.01628 -5.23999,-4.12533 -0.3128,-0.16069 -0.61427,-0.34583 -0.93844,-0.48214 -1.75985,-0.74002 -3.73185,-0.76868 -5.59811,-0.9679 -1.39169,-0.005 -2.80772,-0.0502 -4.22765,-0.0589 -0.29582,-0.002 -0.59185,-0.002 -0.8878,0 z m 1.45159,0.89038 c 1.49702,0.10893 3.0128,0.2408 4.42557,0.75396 0.31911,0.11591 0.62113,0.27419 0.93172,0.41135 1.95175,1.01632 3.67271,2.40229 5.21777,3.95738 0.97925,1.0945 1.68669,2.36898 2.12804,3.76359 0.3773,1.2843 0.64061,2.60204 0.85421,3.92276 0.21838,1.57663 0.24158,3.17064 0.26872,4.7594 0.11848,1.7823 0.25116,3.56333 0.31884,5.34851 -0.0317,1.1568 0.23237,2.36219 -0.10542,3.49694 -0.28784,0.96697 -0.70776,1.55956 -1.21439,2.42621 -1.45235,2.00709 -3.0257,4.08787 -5.11649,5.48235 -0.44482,0.29668 -0.92468,0.53704 -1.38699,0.80564 -2.30021,1.1619 -4.73007,1.95973 -7.22437,2.50941 -0.59496,0.0112 -1.18401,0.0205 -1.75338,0.0124 -1.45165,0.0419 -2.92768,0.10009 -4.38061,0.28629 0.14703,-1.33526 0.27948,-2.67246 0.38706,-4.01268 0.18055,-3.91919 0.31466,-7.8426 0.41547,-11.76517 0.11324,-3.71696 0.18108,-7.43497 0.22583,-11.15333 0.0233,-1.75127 0.0543,-3.50259 0.0713,-5.25394 -0.0307,-1.17773 -0.0319,-2.34842 0.21291,-3.5047 0.12448,-0.3137 0.17038,-0.53646 0.42943,-0.77307 0.68845,-0.62885 1.6903,-0.88794 2.55695,-1.13327 0.53627,-0.16474 1.66485,-0.2696 2.73782,-0.34003 z m -5.91799,38.15064 c 0.0304,-0.002 0.0585,-0.002 0.0848,0.002 0.11091,0.0129 -1.30127,-0.35078 -1.20359,-0.21645 -0.51774,0.047 -0.47211,0.51288 -0.0604,0.54667 0.003,-0.0248 -0.002,0.0248 0,0 0.63127,-0.11837 0.9664,-0.31851 1.17898,-0.33175 z m 7.01766,0.6563 c 0.93863,0.25494 1.81303,0.64324 2.67478,1.15083 1.38321,0.91919 2.22218,2.24747 2.86649,3.74241 0.68993,1.99627 0.83796,4.12645 0.9865,6.21824 0.26495,2.38393 -0.11579,4.70763 -0.67748,7.01353 -0.83317,2.28163 -1.68034,4.60305 -2.93005,6.69416 -1.46624,2.14834 -3.33117,3.98044 -5.22294,5.74952 -1.91537,2.02267 -4.37177,3.2759 -6.91327,4.32273 -1.00005,0.3338 -2.0198,0.59072 -3.04994,0.80099 0.0497,-0.23592 0.097,-0.47286 0.14727,-0.71004 0.50017,-1.74629 0.76628,-3.5318 0.92656,-5.33714 0.14626,-3.3947 0.33219,-6.78496 0.61753,-10.17095 0.30497,-3.74222 0.73357,-7.46796 1.23249,-11.18848 0.37237,-2.54918 0.72957,-5.09911 1.03404,-7.65535 0.70561,-0.0311 1.41186,-0.0714 2.1146,-0.0749 1.90482,-0.009 3.80872,-0.28736 5.69991,-0.47129 0.16499,-0.0257 0.32885,-0.0568 0.49351,-0.0842 z"
         sodipodi:nodetypes="scccccccsccccsccccccsccccsscccccccccsccscsccccccsccssssccccccscscccccccccscssccccccccccccccccccccccccc" />
    </g>
  </g>
</svg>
