<?xml version="1.0" encoding="UTF-8" standalone="no"?>
<!-- Created with Inkscape (http://www.inkscape.org/) -->

<svg
   sodipodi:docname="ardbox.svg"
   id="svg5"
   version="1.1"
   viewBox="0 0 210 297"
   height="297mm"
   width="210mm"
   inkscape:version="1.1 (ce6663b3b7, 2021-05-25)"
   xmlns:inkscape="http://www.inkscape.org/namespaces/inkscape"
   xmlns:sodipodi="http://sodipodi.sourceforge.net/DTD/sodipodi-0.dtd"
   xmlns="http://www.w3.org/2000/svg"
   xmlns:svg="http://www.w3.org/2000/svg">
  <sodipodi:namedview
     id="namedview7"
     pagecolor="#ffffff"
     bordercolor="#666666"
     borderopacity="1.0"
     inkscape:pageshadow="2"
     inkscape:pageopacity="0.0"
     inkscape:pagecheckerboard="0"
     inkscape:document-units="mm"
     showgrid="false"
     inkscape:zoom="1.3932941"
     inkscape:cx="141.03268"
     inkscape:cy="390.80049"
     inkscape:window-width="1848"
     inkscape:window-height="1016"
     inkscape:window-x="0"
     inkscape:window-y="0"
     inkscape:window-maximized="1"
     inkscape:current-layer="g25486"
     showguides="true"
     inkscape:guide-bbox="true" />
  <defs
     id="defs2" />
  <g
     inkscape:label="Layer 1"
     inkscape:groupmode="layer"
     id="layer1">
    <g
       id="panel9255">
      <path
         style="fill:none;stroke:#000000;stroke-width:1"
         d="M 28.4 97.9 L 36.5333 97.9 L 36.5333 94.8 L 43.7333 94.8 L 43.7333 97.9 L 51.7667 97.9 L 51.7667 94.8 L 58.9667 94.8 L 58.9667 97.9 L 67 97.9 L 67 94.8 L 74.2 94.8 L 74.2 97.9 L 82.2333 97.9 L 82.2333 94.8 L 89.4333 94.8 L 89.4333 97.9 L 97.4667 97.9 L 97.4667 94.8 L 104.667 94.8 L 104.667 97.9 L 112.8 97.9"
         id="path1025" />
      <path
         style="fill:none;stroke:#000000;stroke-width:1"
         d="M 112.8 97.9 L 112.8 104.6 L 109.7 104.6 L 109.7 111.4 L 112.8 111.4 L 112.8 118.1"
         id="path1027" />
      <path
         style="fill:none;stroke:#000000;stroke-width:1"
         d="M 112.8,118.1 H 28.4"
         id="path1029"
         sodipodi:nodetypes="cc" />
      <path
         style="fill:none;stroke:#000000;stroke-width:1"
         d="M 28.4 118.1 L 28.4 111.4 L 31.5 111.4 L 31.5 104.6 L 28.4 104.6 L 28.4 97.9"
         id="path1031" />
    </g>
    <g
       id="panel5277">
      <path
         style="fill:none;stroke:#000000;stroke-width:1"
         d="M 28.4 28.4 L 36.7333 28.4 L 36.7333 31.5 L 43.5333 31.5 L 43.5333 28.4 L 51.9667 28.4 L 51.9667 31.5 L 58.7667 31.5 L 58.7667 28.4 L 67.2 28.4 L 67.2 31.5 L 74 31.5 L 74 28.4 L 82.4333 28.4 L 82.4333 31.5 L 89.2333 31.5 L 89.2333 28.4 L 97.6667 28.4 L 97.6667 31.5 L 104.467 31.5 L 104.467 28.4 L 112.8 28.4"
         id="path1043" />
      <path
         style="fill:none;stroke:#000000;stroke-width:1"
         d="M 112.8 28.4 L 112.8 35.98 L 109.7 35.98 L 109.7 42.78 L 112.8 42.78 L 112.8 50.46 L 109.7 50.46 L 109.7 57.26 L 112.8 57.26 L 112.8 64.94 L 109.7 64.94 L 109.7 71.74 L 112.8 71.74 L 112.8 79.42 L 109.7 79.42 L 109.7 86.22 L 112.8 86.22 L 112.8 93.8"
         id="path1045" />
      <path
         style="fill:none;stroke:#000000;stroke-width:1"
         d="M 112.8 93.8 L 104.467 93.8 L 104.467 90.7 L 97.6667 90.7 L 97.6667 93.8 L 89.2333 93.8 L 89.2333 90.7 L 82.4333 90.7 L 82.4333 93.8 L 74 93.8 L 74 90.7 L 67.2 90.7 L 67.2 93.8 L 58.7667 93.8 L 58.7667 90.7 L 51.9667 90.7 L 51.9667 93.8 L 43.5333 93.8 L 43.5333 90.7 L 36.7333 90.7 L 36.7333 93.8 L 28.4 93.8"
         id="path1047" />
      <path
         style="fill:none;stroke:#000000;stroke-width:1"
         d="M 28.4 93.8 L 28.4 86.22 L 31.5 86.22 L 31.5 79.42 L 28.4 79.42 L 28.4 71.74 L 31.5 71.74 L 31.5 64.94 L 28.4 64.94 L 28.4 57.26 L 31.5 57.26 L 31.5 50.46 L 28.4 50.46 L 28.4 42.78 L 31.5 42.78 L 31.5 35.98 L 28.4 35.98 L 28.4 28.4"
         id="path1049" />
    </g>
    <g
       id="panel3816">
      <path
         style="fill:none;stroke:#000000;stroke-width:1"
         d="m 116.9,31.5 h 6.5 v -3.1 h 7.2 v 3.1 h 6.5"
         id="path1052" />
      <path
         style="fill:none;stroke:#000000;stroke-width:1"
         d="m 137.1,31.5 v 4.28 h 3.1 v 7.2 h -3.1 v 36.24 h 3.1 v 7.2 h -3.1 v 4.28"
         id="path1054"
         sodipodi:nodetypes="cccccccccc" />
      <path
         style="fill:none;stroke:#000000;stroke-width:1"
         d="m 137.1,90.7 h -6.5 v 3.1 h -7.2 v -3.1 h -6.5"
         id="path1056" />
      <path
         style="fill:none;stroke:#000000;stroke-width:1"
         d="m 116.9,90.7 v -4.28 h -3.1 v -7.2 h 3.1 v -7.28 h -3.1 v -7.2 h 3.1 v -7.28 h -3.1 v -7.2 h 3.1 v -7.28 h -3.1 v -7.2 h 3.1 V 31.5"
         id="path1058" />
    </g>
    <g
       id="panel4120">
      <path
         style="fill:none;stroke:#000000;stroke-width:1"
         d="m 28.4,4.1 h 84.4"
         id="path1070"
         sodipodi:nodetypes="cc" />
      <path
         style="fill:none;stroke:#000000;stroke-width:1"
         d="M 112.8 4.1 L 112.8 10.8 L 109.7 10.8 L 109.7 17.6 L 112.8 17.6 L 112.8 24.3"
         id="path1072" />
      <path
         style="fill:none;stroke:#000000;stroke-width:1"
         d="M 112.8 24.3 L 104.667 24.3 L 104.667 27.4 L 97.4667 27.4 L 97.4667 24.3 L 89.4333 24.3 L 89.4333 27.4 L 82.2333 27.4 L 82.2333 24.3 L 74.2 24.3 L 74.2 27.4 L 67 27.4 L 67 24.3 L 58.9667 24.3 L 58.9667 27.4 L 51.7667 27.4 L 51.7667 24.3 L 43.7333 24.3 L 43.7333 27.4 L 36.5333 27.4 L 36.5333 24.3 L 28.4 24.3"
         id="path1074" />
      <path
         style="fill:none;stroke:#000000;stroke-width:1"
         d="M 28.4 24.3 L 28.4 17.6 L 31.5 17.6 L 31.5 10.8 L 28.4 10.8 L 28.4 4.1"
         id="path1076" />
    </g>
    <g
       id="g8155"
       transform="translate(81.258412,104.59877)">
      <g
         id="panel4579"
         transform="translate(-49.925292,-5.2132852)">
        <path
           style="fill:none;stroke:#000000;stroke-width:1"
           d="m 4.1,31.5 h 6.5 v -3.1 h 7.2 v 3.1 h 6.5"
           id="path1034" />
        <path
           style="fill:none;stroke:#000000;stroke-width:1"
           d="m 24.3,31.5 v 4.28 h 3.1 v 7.2 h -3.1 v 7.28 h 3.1 v 7.2 h -3.1 v 7.28 h 3.1 v 7.2 h -3.1 v 7.28 h 3.1 v 7.2 h -3.1 v 4.28"
           id="path1036" />
        <path
           style="fill:none;stroke:#000000;stroke-width:1"
           d="m 24.3,90.7 h -6.5 v 3.1 H 10.6 V 90.7 H 4.1"
           id="path1038" />
        <path
           style="fill:none;stroke:#000000;stroke-width:1"
           d="M 4.1,90.7 V 86.42 H 1 v -7.2 H 4.1 V 42.98 H 1 v -7.2 H 4.1 V 31.5"
           id="path1040"
           sodipodi:nodetypes="cccccccccc" />
      </g>
      <rect
         style="fill:none;stroke:#000000;stroke-width:0.259275"
         id="rect6773"
         width="11.740726"
         height="13.740726"
         x="-41.29866"
         y="38.336361" />
      <rect
         style="fill:none;stroke:#000000;stroke-width:0.271934"
         id="rect6775"
         width="12.728065"
         height="10.728065"
         x="-42.285999"
         y="68.713898" />
    </g>
    <g
       id="g25486"
       transform="translate(-24.748269,18.497223)">
      <g
         id="panel165"
         transform="translate(-10.676553,82.609208)">
        <path
           style="fill:none;stroke:#000000;stroke-width:1"
           d="m 141.2,28.4 c 35.14838,-0.290811 61.06951,0 87.04583,0"
           id="path1061"
           sodipodi:nodetypes="cc" />
        <path
           style="fill:none;stroke:#000000;stroke-width:1"
           d="m 228.24583,28.4 v 7.58 H 222.5 v 6.8 h 5.74583 v 7.68 H 222.5 v 21.28 h 5.74583 v 7.68 H 222.5 v 6.8 h 5.74583 v 7.58"
           id="path1063"
           sodipodi:nodetypes="cccccccccccccc" />
        <path
           style="fill:none;stroke:#000000;stroke-width:1"
           d="M 228.24583,93.8 H 141.2"
           id="path1065"
           sodipodi:nodetypes="cc" />
        <path
           style="fill:none;stroke:#000000;stroke-width:1"
           d="m 141.2,93.8 v -7.58 h 3.1 v -6.8 h -3.1 v -7.68 h 3.1 V 50.46 h -3.1 v -7.68 h 3.1 v -6.8 h -3.1 V 28.4"
           id="path1067"
           sodipodi:nodetypes="cccccccccccccc" />
      </g>
      <rect
         style="fill:none;stroke:#000000;stroke-width:0.264583"
         id="rect8179"
         width="63.231804"
         height="7.8733559"
         x="141.63229"
         y="120.13229" />
      <rect
         style="fill:none;stroke:#000000;stroke-width:0.264583"
         id="rect8179-3"
         width="63.231804"
         height="7.8733559"
         x="141.63229"
         y="160.13229" />
      <g
         aria-label="Þórhallur"
         id="text18804"
         style="font-size:8.46667px;line-height:1.25;stroke-width:0.264583;fill:#ff0000">
        <path
           d="m 154.99999,140.59945 h 0.8351 v 1.0914 h 1.05006 q 1.03766,0 1.56683,0.46716 0.5333,0.46302 0.5333,1.37253 0,0.9095 -0.5333,1.37666 -0.52917,0.46715 -1.56683,0.46715 h -1.05006 v 1.39733 h -0.8351 z m 0.8351,1.77767 v 2.31097 h 1.05006 q 0.58291,0 0.90124,-0.30179 0.31833,-0.30179 0.31833,-0.85576 0,-0.55398 -0.31833,-0.85163 -0.31419,-0.30179 -0.90124,-0.30179 z"
           id="path25432"
           style="fill:#ff0000" />
        <path
           d="m 161.8833,142.67477 q -0.61185,0 -0.96739,0.47956 -0.35553,0.47542 -0.35553,1.30638 0,0.83096 0.3514,1.31052 0.35553,0.47542 0.97152,0.47542 0.60771,0 0.96325,-0.47956 0.35553,-0.47955 0.35553,-1.30638 0,-0.82269 -0.35553,-1.30224 -0.35554,-0.4837 -0.96325,-0.4837 z m 0,-0.64492 q 0.99219,0 1.55856,0.64492 0.56637,0.64493 0.56637,1.78594 0,1.13688 -0.56637,1.78594 -0.56637,0.64492 -1.55856,0.64492 -0.99632,0 -1.5627,-0.64492 -0.56224,-0.64906 -0.56224,-1.78594 0,-1.14101 0.56224,-1.78594 0.56638,-0.64492 1.5627,-0.64492 z M 162.45794,140 h 0.82269 l -1.34772,1.55443 h -0.63252 z"
           id="path25434"
           style="fill:#ff0000" />
        <path
           d="m 167.95218,142.85254 q -0.12816,-0.0744 -0.28112,-0.10749 -0.14883,-0.0372 -0.33073,-0.0372 -0.64492,0 -0.99219,0.42168 -0.34313,0.41754 -0.34313,1.20302 v 2.43913 h -0.76481 v -4.63021 h 0.76481 v 0.71934 q 0.23978,-0.42168 0.62425,-0.62425 0.38448,-0.20671 0.93431,-0.20671 0.0786,0 0.17364,0.0124 0.0951,0.008 0.21084,0.0289 z"
           id="path25436"
           style="fill:#ff0000" />
        <path
           d="m 172.4501,143.97702 v 2.79466 h -0.76068 v -2.76986 q 0,-0.65732 -0.25631,-0.98391 -0.25632,-0.3266 -0.76895,-0.3266 -0.61598,0 -0.97152,0.39274 -0.35553,0.39274 -0.35553,1.07074 v 2.61689 H 168.5723 V 140.339 h 0.76481 v 2.52181 q 0.27285,-0.41755 0.64079,-0.62425 0.37207,-0.20671 0.85576,-0.20671 0.79788,0 1.20716,0.4961 0.40928,0.49196 0.40928,1.45107 z"
           id="path25438"
           style="fill:#ff0000" />
        <path
           d="m 176.07159,144.44418 q -0.92191,0 -1.27745,0.21084 -0.35553,0.21084 -0.35553,0.71933 0,0.40514 0.26458,0.64492 0.26872,0.23565 0.72761,0.23565 0.63252,0 1.01286,-0.44649 0.38447,-0.45062 0.38447,-1.19476 v -0.16949 z m 1.51722,-0.3142 v 2.6417 h -0.76068 v -0.7028 q -0.26045,0.42168 -0.64906,0.62425 -0.3886,0.19844 -0.95084,0.19844 -0.71107,0 -1.13275,-0.39687 -0.41755,-0.40101 -0.41755,-1.07074 0,-0.78135 0.5209,-1.17822 0.52503,-0.39688 1.5627,-0.39688 h 1.0666 v -0.0744 q 0,-0.52503 -0.34727,-0.81029 -0.34313,-0.28939 -0.96738,-0.28939 -0.39688,0 -0.77308,0.0951 -0.3762,0.0951 -0.72347,0.28525 v -0.7028 q 0.41755,-0.16123 0.81029,-0.23978 0.39274,-0.0827 0.76481,-0.0827 1.00459,0 1.50068,0.5209 0.4961,0.5209 0.4961,1.57923 z"
           id="path25440"
           style="fill:#ff0000" />
        <path
           d="m 179.15563,140.339 h 0.76068 v 6.43268 h -0.76068 z"
           id="path25442"
           style="fill:#ff0000" />
        <path
           d="m 181.50795,140.339 h 0.76067 v 6.43268 h -0.76067 z"
           id="path25444"
           style="fill:#ff0000" />
        <path
           d="m 183.78171,144.9444 v -2.80293 h 0.76068 v 2.77399 q 0,0.65733 0.25631,0.98806 0.25632,0.32659 0.76895,0.32659 0.61598,0 0.97152,-0.39274 0.35966,-0.39274 0.35966,-1.07073 v -2.62517 h 0.76068 v 4.63021 h -0.76068 v -0.71107 q -0.27698,0.42168 -0.64492,0.62839 -0.3638,0.20257 -0.84749,0.20257 -0.79789,0 -1.2113,-0.49609 -0.41341,-0.4961 -0.41341,-1.45108 z m 1.9141,-2.91455 z"
           id="path25446"
           style="fill:#ff0000" />
        <path
           d="m 191.90939,142.85254 q -0.12816,-0.0744 -0.28112,-0.10749 -0.14883,-0.0372 -0.33073,-0.0372 -0.64493,0 -0.99219,0.42168 -0.34313,0.41754 -0.34313,1.20302 v 2.43913 h -0.76482 v -4.63021 h 0.76482 v 0.71934 q 0.23978,-0.42168 0.62425,-0.62425 0.38447,-0.20671 0.93431,-0.20671 0.0786,0 0.17363,0.0124 0.0951,0.008 0.21084,0.0289 z"
           id="path25448"
           style="fill:#ff0000" />
      </g>
    </g>
  </g>
</svg>
